<?xml version="1.0" encoding="UTF-8" standalone="no"?>
<!-- Created with Inkscape (http://www.inkscape.org/) -->

<svg
   width="210mm"
   height="297mm"
   viewBox="0 0 210 297"
   version="1.1"
   id="svg868"
   inkscape:version="1.2 (dc2aedaf03, 2022-05-15)"
   sodipodi:docname="Comore.svg"
   xmlns:inkscape="http://www.inkscape.org/namespaces/inkscape"
   xmlns:sodipodi="http://sodipodi.sourceforge.net/DTD/sodipodi-0.dtd"
   xmlns="http://www.w3.org/2000/svg"
   xmlns:svg="http://www.w3.org/2000/svg">
  <sodipodi:namedview
     id="namedview870"
     pagecolor="#ffffff"
     bordercolor="#000000"
     borderopacity="0.25"
     inkscape:showpageshadow="2"
     inkscape:pageopacity="0.0"
     inkscape:pagecheckerboard="0"
     inkscape:deskcolor="#d1d1d1"
     inkscape:document-units="mm"
     showgrid="false"
     inkscape:zoom="0.5946522"
     inkscape:cx="454.04692"
     inkscape:cy="536.44803"
     inkscape:window-width="1280"
     inkscape:window-height="961"
     inkscape:window-x="-8"
     inkscape:window-y="-8"
     inkscape:window-maximized="1"
     inkscape:current-layer="layer1" />
  <defs
     id="defs865">
    <inkscape:perspective
       sodipodi:type="inkscape:persp3d"
       inkscape:vp_x="0 : 148.5 : 1"
       inkscape:vp_y="0 : 1000 : 0"
       inkscape:vp_z="210 : 148.5 : 1"
       inkscape:persp3d-origin="105 : 99 : 1"
       id="perspective4644" />
  </defs>
  <g
     inkscape:label="Réteg 1"
     inkscape:groupmode="layer"
     id="layer1">
    <rect
       style="fill:#ffc61e;fill-opacity:1;stroke-width:0.264583"
       id="rect924"
       width="120"
       height="20"
       x="33.034958"
       y="153.53389" />
    <rect
       style="fill:#ffffff;fill-opacity:1;stroke-width:0.264583"
       id="rect924-9"
       width="120"
       height="20"
       x="33.127121"
       y="172.47881" />
    <rect
       style="fill:#ce1126;fill-opacity:1;stroke-width:0.264583"
       id="rect924-6"
       width="120"
       height="20"
       x="33.441742"
       y="191.67055" />
    <rect
       style="fill:#3a75c4;fill-opacity:1;stroke-width:0.264583"
       id="rect924-62"
       width="120"
       height="20"
       x="33.756355"
       y="210.86232" />
    <path
       sodipodi:type="star"
       style="fill:#3d8e33;fill-opacity:1;stroke-width:0.264583"
       id="path2952"
       inkscape:flatsided="false"
       sodipodi:sides="3"
       sodipodi:cx="37.557945"
       sodipodi:cy="249.17795"
       sodipodi:r1="50.96822"
       sodipodi:r2="25.48411"
       sodipodi:arg1="0"
       sodipodi:arg2="1.0471976"
       inkscape:rounded="0"
       inkscape:randomized="0"
       d="m 88.526165,249.17795 -38.226166,22.06989 -38.226164,22.06988 0,-44.13977 0,-44.13978 38.226166,22.06989 z"
       inkscape:transform-center-x="-11.891041"
       inkscape:transform-center-y="-0.078136501"
       transform="matrix(0.9382666,0.003066,-0.00291833,0.89307852,22.74841,-30.733271)" />
    <path
       sodipodi:type="star"
       style="fill:#ffffff;fill-opacity:1;stroke-width:0.264583"
       id="path4777"
       inkscape:flatsided="false"
       sodipodi:sides="5"
       sodipodi:cx="28.630297"
       sodipodi:cy="255.15572"
       sodipodi:r1="6.108789"
       sodipodi:r2="3.0543945"
       sodipodi:arg1="2.1730837"
       sodipodi:arg2="2.8014022"
       inkscape:rounded="0"
       inkscape:randomized="0"
       d="m 25.169492,260.18961 0.581454,-4.01474 -2.977619,-2.75502 3.997933,-0.68762 1.700036,-3.68323 1.889403,3.58977 4.028299,0.47865 -2.830217,2.90623 0.78959,3.97905 -3.638574,-1.79362 z"
       inkscape:transform-center-x="0.031254746"
       inkscape:transform-center-y="-0.32217934"
       transform="matrix(0.63610275,0,0,0.60061643,41.21256,23.604157)" />
    <path
       sodipodi:type="star"
       style="fill:#ffffff;fill-opacity:1;stroke-width:0.264583"
       id="path4777-03"
       inkscape:flatsided="false"
       sodipodi:sides="5"
       sodipodi:cx="28.630297"
       sodipodi:cy="255.15572"
       sodipodi:r1="6.108789"
       sodipodi:r2="3.0543945"
       sodipodi:arg1="2.1730837"
       sodipodi:arg2="2.8014022"
       inkscape:rounded="0"
       inkscape:randomized="0"
       d="m 25.169492,260.18961 0.581454,-4.01474 -2.977619,-2.75502 3.997933,-0.68762 1.700036,-3.68323 1.889403,3.58977 4.028299,0.47865 -2.830217,2.90623 0.78959,3.97905 -3.638574,-1.79362 z"
       inkscape:transform-center-x="0.031254746"
       inkscape:transform-center-y="-0.32217934"
       transform="matrix(0.63610275,0,0,0.60061643,41.218661,31.053306)" />
    <path
       sodipodi:type="star"
       style="fill:#ffffff;fill-opacity:1;stroke-width:0.264583"
       id="path4777-22"
       inkscape:flatsided="false"
       sodipodi:sides="5"
       sodipodi:cx="28.630297"
       sodipodi:cy="248.1181"
       sodipodi:r1="6.108789"
       sodipodi:r2="3.0543945"
       sodipodi:arg1="2.1730837"
       sodipodi:arg2="2.8014022"
       inkscape:rounded="0"
       inkscape:randomized="0"
       d="m 25.169492,253.152 0.581454,-4.01475 -2.977619,-2.75501 3.997933,-0.68763 1.700036,-3.68323 1.889403,3.58977 4.028299,0.47865 -2.830217,2.90623 0.78959,3.97905 -3.638574,-1.79362 z"
       inkscape:transform-center-x="0.031254746"
       inkscape:transform-center-y="-0.32217934"
       transform="matrix(0.63610275,0,0,0.60061643,41.44113,43.511569)" />
    <path
       sodipodi:type="star"
       style="opacity:1;fill:#ffffff;fill-opacity:1;stroke-width:0.264583"
       id="path4777-08"
       inkscape:flatsided="false"
       sodipodi:sides="5"
       sodipodi:cx="28.630297"
       sodipodi:cy="247.0069"
       sodipodi:r1="6.108789"
       sodipodi:r2="3.0543945"
       sodipodi:arg1="2.1730837"
       sodipodi:arg2="2.8014022"
       inkscape:rounded="0"
       inkscape:randomized="0"
       d="m 25.169492,252.0408 0.581454,-4.01475 -2.977619,-2.75501 3.997933,-0.68763 1.700036,-3.68323 1.889403,3.58977 4.028299,0.47865 -2.830217,2.90623 0.78959,3.97905 -3.638574,-1.79362 z"
       inkscape:transform-center-x="0.031254746"
       inkscape:transform-center-y="-0.32217934"
       transform="matrix(0.63610275,0,0,0.60061643,41.663599,52.187859)" />
    <path
       sodipodi:type="star"
       style="fill:#ffffff;fill-opacity:1;stroke-width:0.264583"
       id="path4777-8"
       inkscape:flatsided="false"
       sodipodi:sides="5"
       sodipodi:cx="28.980034"
       sodipodi:cy="242.93248"
       sodipodi:r1="6.108789"
       sodipodi:r2="3.0543945"
       sodipodi:arg1="2.1730837"
       sodipodi:arg2="2.8014022"
       inkscape:rounded="0"
       inkscape:randomized="0"
       d="m 25.519229,247.96638 0.581454,-4.01475 -2.977618,-2.75501 3.997932,-0.68763 1.700036,-3.68323 1.889403,3.58977 4.028299,0.47865 -2.830216,2.90623 0.789589,3.97905 -3.638574,-1.79362 z"
       inkscape:transform-center-x="0.031254746"
       inkscape:transform-center-y="-0.32217934"
       transform="matrix(0.63610275,0,0,0.60061643,41.663599,63.088839)" />
    <path
       style="opacity:1;fill:#ffffff;fill-opacity:1;stroke-width:0.692215"
       id="path5403"
       sodipodi:type="arc"
       sodipodi:cx="-156.79002"
       sodipodi:cy="-59.855087"
       sodipodi:rx="20.081474"
       sodipodi:ry="20.854507"
       sodipodi:start="3.7717292"
       sodipodi:end="1.3047781"
       sodipodi:arc-type="slice"
       d="m -173.01479,-72.143712 a 20.081474,20.854507 0 0 1 22.75897,-7.431018 20.081474,20.854507 0 0 1 13.53653,20.401464 20.081474,20.854507 0 0 1 -14.79148,19.439135 l -5.27925,-20.120956 z"
       transform="matrix(-0.49074757,-0.8713018,0.43691114,-0.89950467,0,0)" />
  </g>
</svg>
