<?xml version="1.0" encoding="UTF-8" standalone="no"?>
<!-- Created with Inkscape (http://www.inkscape.org/) -->

<svg
   width="210mm"
   height="297mm"
   viewBox="0 0 210 297"
   version="1.1"
   id="svg5283"
   inkscape:version="1.2 (dc2aedaf03, 2022-05-15)"
   sodipodi:docname="Malacka.svg"
   xmlns:inkscape="http://www.inkscape.org/namespaces/inkscape"
   xmlns:sodipodi="http://sodipodi.sourceforge.net/DTD/sodipodi-0.dtd"
   xmlns="http://www.w3.org/2000/svg"
   xmlns:svg="http://www.w3.org/2000/svg">
  <sodipodi:namedview
     id="namedview5285"
     pagecolor="#ffffff"
     bordercolor="#000000"
     borderopacity="0.25"
     inkscape:showpageshadow="2"
     inkscape:pageopacity="0.0"
     inkscape:pagecheckerboard="0"
     inkscape:deskcolor="#d1d1d1"
     inkscape:document-units="mm"
     showgrid="false"
     inkscape:zoom="1.1893044"
     inkscape:cx="341.37602"
     inkscape:cy="670.13962"
     inkscape:window-width="1280"
     inkscape:window-height="961"
     inkscape:window-x="-8"
     inkscape:window-y="-8"
     inkscape:window-maximized="1"
     inkscape:current-layer="layer1" />
  <defs
     id="defs5280" />
  <g
     inkscape:label="Réteg 1"
     inkscape:groupmode="layer"
     id="layer1">
    <path
       style="fill:#669900;stroke-width:0.264583"
       id="path5539-1"
       sodipodi:type="arc"
       sodipodi:cx="127.02979"
       sodipodi:cy="144.38237"
       sodipodi:rx="5.6729589"
       sodipodi:ry="12.791965"
       sodipodi:start="0"
       sodipodi:end="6.2587473"
       sodipodi:open="true"
       sodipodi:arc-type="arc"
       d="m 132.70275,144.38237 a 5.6729589,12.791965 0 0 1 -5.6383,12.79173 5.6729589,12.791965 0 0 1 -5.70719,-12.63543 5.6729589,12.791965 0 0 1 5.56856,-12.94612 5.6729589,12.791965 0 0 1 5.77524,12.47724" />
    <path
       style="fill:#669900;stroke-width:0.264583"
       id="path5539"
       sodipodi:type="arc"
       sodipodi:cx="71.968719"
       sodipodi:cy="146.71828"
       sodipodi:rx="5.6729589"
       sodipodi:ry="12.791965"
       sodipodi:start="0"
       sodipodi:end="6.2587473"
       sodipodi:open="true"
       sodipodi:arc-type="arc"
       d="m 77.641678,146.71828 a 5.6729589,12.791965 0 0 1 -5.6383,12.79172 5.6729589,12.791965 0 0 1 -5.707194,-12.63542 5.6729589,12.791965 0 0 1 5.568564,-12.94612 5.6729589,12.791965 0 0 1 5.775236,12.47724" />
    <path
       style="fill:#000000;stroke-width:0.264583"
       id="path5565"
       sodipodi:type="arc"
       sodipodi:cx="72.524887"
       sodipodi:cy="149.0542"
       sodipodi:rx="2.8920968"
       sodipodi:ry="8.0088835"
       sodipodi:start="0"
       sodipodi:end="6.2587473"
       sodipodi:open="true"
       sodipodi:arc-type="arc"
       d="m 75.416984,149.0542 a 2.8920968,8.0088835 0 0 1 -2.874428,8.00873 2.8920968,8.0088835 0 0 1 -2.90955,-7.91087 2.8920968,8.0088835 0 0 1 2.838876,-8.1054 2.8920968,8.0088835 0 0 1 2.944238,7.81184" />
    <path
       style="fill:#000000;stroke-width:0.264583"
       id="path5565-7"
       sodipodi:type="arc"
       sodipodi:cx="127.02979"
       sodipodi:cy="147.71939"
       sodipodi:rx="2.8920968"
       sodipodi:ry="8.0088835"
       sodipodi:start="0"
       sodipodi:end="6.2587473"
       sodipodi:open="true"
       sodipodi:arc-type="arc"
       d="m 129.92189,147.71939 a 2.8920968,8.0088835 0 0 1 -2.87443,8.00873 2.8920968,8.0088835 0 0 1 -2.90955,-7.91087 2.8920968,8.0088835 0 0 1 2.83888,-8.1054 2.8920968,8.0088835 0 0 1 2.94424,7.81184" />
    <path
       style="fill:#669900;stroke-width:0.264583"
       id="path5395"
       sodipodi:type="arc"
       sodipodi:cx="101.30721"
       sodipodi:cy="187.51271"
       sodipodi:rx="55.372879"
       sodipodi:ry="44.046612"
       sodipodi:start="0"
       sodipodi:end="6.2587473"
       sodipodi:arc-type="arc"
       d="m 156.68009,187.51271 a 55.372879,44.046612 0 0 1 -55.03458,44.04579 55.372879,44.046612 0 0 1 -55.707043,-43.5076 55.372879,44.046612 0 0 1 54.353903,-44.5774 55.372879,44.046612 0 0 1 56.37119,42.96291"
       sodipodi:open="true" />
    <path
       style="fill:#99cc33;stroke-width:0.264583"
       id="path5525"
       sodipodi:type="arc"
       sodipodi:cx="99.734108"
       sodipodi:cy="195.37817"
       sodipodi:rx="26.113346"
       sodipodi:ry="17.304026"
       sodipodi:start="3.7717292"
       sodipodi:end="3.7320393"
       sodipodi:arc-type="slice"
       d="m 78.635907,185.18169 a 26.113346,17.304026 0 0 1 36.275523,-3.88474 26.113346,17.304026 0 0 1 6.22207,23.99827 26.113346,17.304026 0 0 1 -36.152051,4.36097 26.113346,17.304026 0 0 1 -6.939491,-23.91172 l 21.69215,9.6337 z" />
    <path
       style="fill:#000000;stroke-width:0.264583"
       id="path5527"
       sodipodi:type="arc"
       sodipodi:cx="-10.439358"
       sodipodi:cy="211.42519"
       sodipodi:rx="4.0900421"
       sodipodi:ry="7.8654656"
       sodipodi:start="3.7717292"
       sodipodi:end="3.7320393"
       sodipodi:arc-type="slice"
       d="m -13.743895,206.79042 a 4.0900421,7.8654656 0 0 1 5.6817081,-1.76579 4.0900421,7.8654656 0 0 1 0.9745407,10.90831 4.0900421,7.8654656 0 0 1 -5.6623688,1.98226 4.0900421,7.8654656 0 0 1 -1.086908,-10.86897 l 3.397565,4.37896 z"
       transform="rotate(-27.049574)" />
    <path
       style="fill:#000000;stroke-width:0.264583"
       id="path5529"
       sodipodi:type="arc"
       sodipodi:cx="163.91582"
       sodipodi:cy="155.49255"
       sodipodi:rx="2.5169489"
       sodipodi:ry="6.6069913"
       sodipodi:start="3.7717292"
       sodipodi:end="3.7320393"
       sodipodi:arc-type="slice"
       d="m 161.88226,151.59935 a 2.5169489,6.6069913 0 0 1 3.49643,-1.48326 2.5169489,6.6069913 0 0 1 0.59972,9.16297 2.5169489,6.6069913 0 0 1 -3.48454,1.6651 2.5169489,6.6069913 0 0 1 -0.66886,-9.12993 l 2.09081,3.67832 z"
       transform="rotate(17.00723)" />
    <path
       style="fill:#ffffff;stroke-width:0.264583"
       id="path5531"
       sodipodi:type="arc"
       sodipodi:cx="62.18008"
       sodipodi:cy="173.08086"
       sodipodi:rx="11.234683"
       sodipodi:ry="10.011104"
       sodipodi:start="0"
       sodipodi:end="6.2587473"
       sodipodi:open="true"
       sodipodi:arc-type="arc"
       d="m 73.414763,173.08086 a 11.234683,10.011104 0 0 1 -11.166045,10.01091 11.234683,10.011104 0 0 1 -11.302482,-9.88859 11.234683,10.011104 0 0 1 11.027941,-10.13175 11.234683,10.011104 0 0 1 11.437232,9.7648" />
    <path
       style="fill:#ffffff;stroke-width:0.264583"
       id="path5533"
       sodipodi:type="arc"
       sodipodi:cx="143.27002"
       sodipodi:cy="177.41901"
       sodipodi:rx="11.123448"
       sodipodi:ry="11.457152"
       sodipodi:start="0"
       sodipodi:end="6.2587473"
       sodipodi:open="true"
       sodipodi:arc-type="arc"
       d="m 154.39347,177.41901 a 11.123448,11.457152 0 0 1 -11.05549,11.45693 11.123448,11.457152 0 0 1 -11.19058,-11.31694 11.123448,11.457152 0 0 1 10.91875,-11.59522 11.123448,11.457152 0 0 1 11.324,11.17526" />
    <path
       style="fill:#000000;stroke-width:0.264583"
       id="path5535"
       sodipodi:type="arc"
       sodipodi:cx="56.952057"
       sodipodi:cy="172.8584"
       sodipodi:rx="2.8920968"
       sodipodi:ry="3.1145656"
       sodipodi:start="0"
       sodipodi:end="6.2587473"
       sodipodi:open="true"
       sodipodi:arc-type="arc"
       d="m 59.844154,172.8584 a 2.8920968,3.1145656 0 0 1 -2.874428,3.11451 2.8920968,3.1145656 0 0 1 -2.90955,-3.07646 2.8920968,3.1145656 0 0 1 2.838876,-3.15209 2.8920968,3.1145656 0 0 1 2.944238,3.03793" />
    <path
       style="fill:#000000;stroke-width:0.264583"
       id="path5537"
       sodipodi:type="arc"
       sodipodi:cx="148.16434"
       sodipodi:cy="177.86395"
       sodipodi:rx="2.6696274"
       sodipodi:ry="2.7808621"
       sodipodi:start="0"
       sodipodi:end="6.2587473"
       sodipodi:open="true"
       sodipodi:arc-type="arc"
       d="m 150.83396,177.86395 a 2.6696274,2.7808621 0 0 1 -2.65331,2.78081 2.6696274,2.7808621 0 0 1 -2.68574,-2.74683 2.6696274,2.7808621 0 0 1 2.6205,-2.81437 2.6696274,2.7808621 0 0 1 2.71776,2.71244" />
    <path
       style="fill:#cc0000;stroke-width:0.264583"
       id="path5650"
       sodipodi:type="arc"
       sodipodi:cx="108.00868"
       sodipodi:cy="222.02405"
       sodipodi:rx="8.5650558"
       sodipodi:ry="5.5617242"
       sodipodi:start="0"
       sodipodi:end="6.2587473"
       sodipodi:open="true"
       sodipodi:arc-type="arc"
       d="m 116.57374,222.02405 a 8.5650558,5.5617242 0 0 1 -8.51273,5.56162 8.5650558,5.5617242 0 0 1 -8.616744,-5.49367 8.5650558,5.5617242 0 0 1 8.407444,-5.62874 8.5650558,5.5617242 0 0 1 8.71947,5.42488" />
    <path
       style="fill:#cc0000;stroke-width:0.264583"
       d="m 13.125669,133.25892 c 1.163043,-1.59399 2.042175,-4.93427 3.337035,-6.22913 1.914975,-1.91498 4.870373,-2.27433 7.341476,-2.8921 1.145546,-0.28639 -0.406555,-0.22795 1.112345,-0.44494 0.485373,-0.0693 2.419108,-0.2365 2.892096,0 0.549812,0.2749 -0.07679,0.22247 0.444939,0.22247"
       id="path5715" />
    <path
       style="fill:#000000;stroke-width:0.264583"
       d="m 8.8987589,145.04977 c 0,-0.37078 -0.1990635,-0.79953 0,-1.11234 0.3670551,-0.5768 0.9832793,-0.9634 1.5572831,-1.33482 0.148902,-0.0964 4.452636,-2.44716 5.116786,-2.44716"
       id="path5717" />
    <path
       style="fill:#000000;stroke-width:0.264583"
       id="path5891"
       d="m 64.472645,161.70504 c 0.351422,0.25506 0.776443,0.35497 1.153318,0.56003 0.566013,0.30799 -0.02328,0.0292 0.57132,0.29693 0.643517,0.26196 1.280242,0.53738 1.917333,0.81517 0.624742,0.23727 1.234619,0.50886 1.855657,0.75628 0.634225,0.20767 1.270344,0.40262 1.919465,0.5587 1.443321,0.53174 4.020868,2.17284 -1.897988,-1.22767 1.528873,0.97809 3.123091,1.84158 4.698513,2.74565 1.42399,0.82442 -1.879357,-1.08836 -2.952176,-1.69608 -0.06517,-0.0369 0.12196,0.087 0.183107,0.13021 0.190715,0.13488 0.375471,0.27145 0.55552,0.42036 0.227184,0.19822 0.3494,0.47163 0.489135,0.73161 0,0 3.599849,1.60786 3.599849,1.60786 v 0 c -0.160671,-0.2735 -0.273447,-0.56733 -0.443936,-0.83421 -0.206193,-0.23594 -0.445069,-0.4471 -0.716217,-0.60829 -3.303389,-1.96374 -2.369936,-1.45439 -3.785108,-2.2213 5.88309,3.40743 3.316402,1.98693 2.047201,1.1365 -1.560418,-0.89783 -3.111903,-2.07183 -4.88999,-2.56887 -0.63559,-0.17765 -1.272206,-0.35392 -1.885931,-0.59961 -0.614167,-0.25906 -1.234612,-0.50216 -1.848766,-0.76133 -0.637717,-0.27648 -1.283348,-0.53512 -1.911982,-0.83159 -0.579223,-0.30164 -1.177184,-0.56326 -1.758556,-0.86051 0,0 3.100232,2.45016 3.100232,2.45016 z" />
    <path
       style="fill:#000000;stroke-width:0.264583"
       id="path5893"
       d="m 131.54892,171.65547 c 0.79571,-0.5538 1.50713,-1.21809 2.12945,-1.96011 0.41644,-0.46068 0.74486,-0.98969 1.1087,-1.49146 0.31289,-0.46158 0.63259,-0.86569 1.1355,-1.1209 0.27233,-0.16436 0.13738,-0.0902 0.40377,-0.22453 0,0 -3.30402,-2.15836 -3.30402,-2.15836 v 0 c -0.26821,0.15506 -0.13437,0.0756 -0.40144,0.23843 -0.51252,0.3271 -0.87803,0.76252 -1.21408,1.26558 -0.36139,0.49334 -0.68861,1.01064 -1.07329,1.48622 -0.56634,0.70522 -1.23031,1.37312 -2.05782,1.76193 0,0 3.27323,2.2032 3.27323,2.2032 z" />
    <circle
       id="path5895"
       style="fill:#000000;stroke:#000000;stroke-width:0.264583"
       cx="132.14656"
       cy="170.18877"
       r="0.02963265" />
    <path
       style="fill:#669900;stroke-width:0.264583"
       id="path5948"
       d="m 79.859819,167.24653 c -0.376812,-0.004 -0.763934,0.0583 -1.138002,-0.0178 -0.181229,-0.0369 -0.353319,-0.10947 -0.530514,-0.16244 -0.888581,-0.26562 -0.374525,-0.0818 -1.242028,-0.43147 -1.25676,-0.54009 -3.702328,-1.91657 1.815658,1.1266 0.143071,0.0789 -0.27188,-0.18139 -0.404865,-0.27631 -0.268502,-0.19165 -0.494612,-0.37278 -0.753806,-0.5754 -1.528426,-1.39772 -3.269033,-2.58752 -5.252535,-3.27785 -0.607742,-0.30867 -1.274937,-0.44966 -1.899499,-0.71935 -1.255413,-0.69331 -0.943367,-0.52264 2.862707,1.64199 0.09181,0.0522 -0.181666,-0.10784 -0.271187,-0.16389 -0.293857,-0.184 -0.578514,-0.38269 -0.864794,-0.5781 -1.441457,-0.98908 -2.998525,-1.7926 -4.519488,-2.65116 -0.103282,-0.0583 -0.421714,-0.21684 -0.31919,-0.15721 1.022003,0.59442 2.052198,1.17464 3.078294,1.76196 -1.610569,-0.89811 -3.124636,-2.14078 -4.961673,-2.51489 -0.757869,-0.20601 -1.492334,-0.48473 -2.240311,-0.72011 -0.347623,-0.0865 -1.121114,-0.73579 -1.34393,-0.14418 -0.04164,0.11057 -0.02432,0.23505 -0.03649,0.35256 0.232492,0.50888 0.732404,0.79939 1.199182,1.07036 3.684992,2.13926 2.44543,1.52523 4.095816,2.32812 0.654476,0.27656 1.3424,0.46611 2.030389,0.63931 0.432943,0.13141 0.891042,0.12398 1.328372,0.22941 0.216662,0.0522 0.427376,0.12663 0.641405,0.18878 0.604743,0.13687 1.208927,0.26497 1.780024,0.51279 1.234509,0.67749 1.297843,0.71434 -2.81428,-1.6151 -0.09114,-0.0516 0.179417,0.10834 0.266311,0.16684 0.27454,0.18483 0.527116,0.40261 0.786858,0.60707 0.76963,0.55718 1.494882,1.17313 2.228675,1.77607 0.474168,0.4275 1.008198,0.78323 1.484305,1.20795 0.232259,0.20719 0.162973,0.28867 0.240017,0.0846 -0.05106,-0.52382 0.07395,-0.27941 -0.448633,-0.55765 -0.164478,-0.0876 -0.324729,-0.18287 -0.486381,-0.27555 -0.172262,-0.0988 -0.687747,-0.39733 -0.515353,-0.2988 2.864953,1.63751 3.739867,2.18327 2.330522,1.31526 -1.234872,-0.70677 -2.404735,-1.54174 -3.704612,-2.12031 -0.134485,-0.0599 -0.316724,0.2161 -0.264414,0.3537 0.146373,0.38503 1.296572,0.99131 1.535933,1.13287 1.595371,0.9435 3.212055,1.85049 4.819793,2.77275 0.09807,0.0516 0.215733,0.23297 0.294203,0.15474 0.147807,-0.14735 0.20914,-0.40339 0.158248,-0.6058 -0.04052,-0.16115 -0.257212,-0.21053 -0.388956,-0.31179 -0.502873,-0.38654 -1.019416,-0.75283 -1.519071,-1.14385 -0.96492,-0.73969 -1.963293,-1.43317 -2.978359,-2.10185 -1.719956,-1.13976 -3.551936,-2.07502 -5.375696,-3.02399 -0.106513,-0.0491 -0.214294,-0.0955 -0.31954,-0.1472 -0.34676,-0.17043 -0.76478,-0.42514 -0.643387,-0.35552 5.357823,3.07282 3.469158,2.01616 2.306214,1.28047 -0.774769,-0.47086 -1.484455,-1.03654 -2.193711,-1.59854 -1.830826,-1.45961 -3.918648,-2.59584 -6.094206,-3.45201 -0.730911,-0.20681 -1.521719,-0.55889 -2.287161,-0.35791 -0.216636,0.21122 -0.312809,0.22321 -0.247547,0.61003 0.07245,0.42945 0.671719,0.77554 0.995693,0.96517 1.269685,0.7432 2.551086,1.46619 3.826629,2.19928 1.16549,0.54914 2.422041,0.85467 3.599127,1.37498 1.476447,0.66639 5.164286,2.86499 -0.964689,-0.66327 1.557009,0.96397 3.085679,1.98727 4.753941,2.7566 0.310224,0.0822 0.552476,0.29906 0.859565,0.39 0.874207,0.25888 3.138871,-0.004 3.809389,-0.0428 5.865487,-0.28156 11.718977,-0.74976 17.583623,-1.04929 5.633307,-0.26233 11.273586,-0.28601 16.911796,-0.30583 6.09935,-0.0179 12.19866,-0.0429 18.29805,-0.0418 4.47185,0.0279 8.94773,-0.0212 13.41672,0.17255 0.13651,0.0124 0.51987,0.11858 0.40952,0.0373 -1.12145,-0.8261 -2.28092,-1.6056 -3.48622,-2.3037 -0.13571,-0.0786 -0.31353,0.01 -0.47035,0.0121 -0.5196,0.008 -1.03941,0.003 -1.55903,6e-5 -1.02674,-0.0942 -1.9006,0.33539 -2.78494,0.79533 -0.58708,0.34121 -1.20278,0.67238 -1.67565,1.17118 -0.15954,0.16829 -0.33403,0.41509 -0.47252,0.60215 -0.36611,0.54264 -0.67737,1.11585 -1.05406,1.65332 -0.37737,0.42347 -0.78079,0.832 -1.22641,1.18392 -0.53231,0.41179 -0.86126,0.99728 -1.22961,1.54647 -0.0882,0.12335 -0.17697,0.24631 -0.26465,0.37004 -0.055,0.0776 -0.6309,0.91027 -0.5942,0.93695 3.34455,2.43155 2.56453,3.14473 3.67915,1.80875 0.75849,-0.92198 1.50568,-1.84839 2.32022,-2.72245 0.63537,-0.67601 1.29895,-1.32237 1.91661,-2.01472 0.0613,-0.0578 0.81218,-0.81462 0.74076,-0.85886 -3.51188,-2.1753 -2.61791,-2.97307 -3.76832,-1.7156 -0.64925,0.62065 -1.15199,1.35484 -1.63013,2.10875 -0.53115,0.79112 -1.08582,1.56556 -1.63978,2.34102 -0.0993,0.13186 -0.32704,0.41275 -0.3945,0.57909 -0.035,0.0862 -0.12904,0.48189 0.0115,0.56333 3.51472,2.03751 2.38129,2.15759 4.11713,1.84845 0.89007,-0.2105 1.69695,-0.5824 2.29337,-1.28819 0.41546,-0.59363 0.46824,-1.29993 0.49152,-2.00026 0.0145,-0.68164 0.23731,-1.32291 0.56262,-1.91492 0.12745,-0.26187 0.39958,-0.46198 0.50114,-0.73791 0.48682,-1.32265 -2.26938,-1.73463 -3.58341,-2.24428 -0.18562,-0.072 -0.31306,0.24606 -0.4696,0.36909 -0.94614,0.76193 -1.82448,1.60766 -2.80074,2.33304 -0.94954,0.70553 -1.21269,0.82612 -2.26018,1.45492 -1.08689,0.62345 -2.23737,1.1112 -3.3984,1.57406 0,0 3.11438,2.07743 3.11438,2.07743 v 0 c 1.13802,-0.51084 2.26303,-1.04786 3.34881,-1.66446 1.00994,-0.58074 1.43394,-0.79143 2.3644,-1.44717 0.99464,-0.70097 1.86743,-1.56114 2.88579,-2.22915 1.5936,-0.70618 0.51894,-0.0838 -2.73132,-2.2189 -0.0349,-0.0229 0.12276,-0.02 0.12321,0.0217 0.002,0.19064 -0.44273,0.57628 -0.50218,0.76021 -0.33395,0.64944 -0.60067,1.34146 -0.63382,2.07894 -0.0203,0.60648 -0.0239,1.24145 -0.36748,1.76728 -0.53958,0.62099 -1.31704,0.93842 -2.12394,1.04462 -1.60947,0.0453 -0.20328,-0.0615 2.7348,1.89779 0.0619,0.0413 -0.14932,0.0593 -0.22023,0.0367 -0.11825,-0.0377 0.005,-0.26043 0.0706,-0.3656 0.069,-0.11002 0.15203,-0.21056 0.22804,-0.31584 0.54179,-0.79025 1.08241,-1.58014 1.63894,-2.36001 0.46619,-0.72074 0.94148,-1.44372 1.60271,-2.00445 1.29386,-0.91559 0.37202,-0.15301 -3.03277,-2.28928 -0.0192,-0.0121 0.008,0.0479 -0.003,0.068 -0.0737,0.14178 -0.24741,0.32367 -0.34587,0.4319 -0.0862,0.0948 -0.17456,0.18759 -0.26183,0.28138 -0.60976,0.69554 -1.26935,1.34283 -1.89718,2.02177 -0.77861,0.88958 -1.47497,1.85841 -2.3433,2.66275 -1.34996,0.53207 -0.48672,0.14254 3.08988,2.20146 0.0686,0.0395 0.0517,-0.1501 0.0866,-0.22114 0.1873,-0.38082 0.45714,-0.71086 0.70602,-1.05148 0.35723,-0.51453 0.70403,-1.04107 1.2007,-1.43466 0.45661,-0.39158 0.89962,-0.80718 1.27457,-1.27886 0.37473,-0.53519 0.68082,-1.10722 1.04142,-1.64995 0.53949,-0.73648 1.1727,-1.24534 2.00041,-1.64976 0.90977,-0.4385 1.6878,-0.68778 2.70614,-0.63127 0.5197,-0.003 1.03955,-0.008 1.55923,2e-5 0.1679,0.002 0.62385,0.12914 0.5036,0.012 -2.48619,-2.42276 -1.67923,-2.44515 -3.16313,-2.26704 -4.31401,0.20917 -8.63721,0.12787 -12.95438,0.16333 -6.1341,-0.004 -12.26811,-0.0446 -18.40222,-0.0318 -5.63809,0.0318 -11.277953,0.0781 -16.911474,0.32561 -5.888863,0.31298 -11.763754,0.91857 -17.664036,0.97636 -1.639535,-0.0368 -2.273797,0.045 -3.700603,-0.23316 -0.450453,-0.0878 -0.834577,-0.40319 -1.262956,-0.55153 -1.309037,-0.64425 -0.464656,-0.23533 2.931509,1.73104 0.06912,0.04 -0.136044,-0.0839 -0.201015,-0.1304 -0.2442,-0.17457 -0.490471,-0.33738 -0.745233,-0.49788 -1.880785,-1.08328 -3.722568,-2.26587 -5.720485,-3.12956 -1.19022,-0.47279 -2.441061,-0.79948 -3.574113,-1.40849 0.927407,0.54042 1.855515,1.07964 2.782223,1.62125 0.154088,0.0901 -0.312166,-0.17333 -0.464349,-0.26657 -0.198773,-0.12178 -0.365818,-0.29689 -0.577641,-0.39422 -0.04844,-0.0222 -0.112421,0.009 -0.159086,-0.0164 -0.02371,-0.0131 0.05045,-0.0198 0.07568,-0.0297 0.723995,-0.0255 1.428435,0.25596 2.101262,0.48705 0.432356,0.18111 0.559012,0.22738 0.9861,0.43445 0.149717,0.0726 0.587311,0.31251 0.444463,0.22719 -5.293596,-3.16152 -3.036036,-1.87752 -1.975483,-1.0501 0.696058,0.57131 1.398905,1.13555 2.146594,1.63851 0.467953,0.26366 0.239511,0.12009 0.68484,0.43149 1.540793,0.91095 3.057241,1.86838 4.671141,2.64424 0.297815,0.1488 0.595792,0.29732 0.889895,0.45339 0.110617,0.0587 0.438732,0.24163 0.33056,0.17854 -2.590777,-1.51114 -4.008224,-2.29153 -2.504104,-1.45954 1.032531,0.64752 2.024274,1.3557 3.010095,2.07103 0.481785,0.39559 0.981295,0.75727 1.479426,1.13142 0.113803,0.0855 0.196636,0.27865 0.337873,0.26107 0.185274,-0.023 0.343453,-0.19231 0.431726,-0.35683 0.03341,-0.0623 -0.127704,-0.0605 -0.191558,-0.0908 0.852339,0.4982 1.707141,0.99221 2.557015,1.4946 0.299741,0.17719 -0.607142,-0.34123 -0.906563,-0.51896 -0.285393,-0.1694 -0.547891,-0.37986 -0.847656,-0.5223 -0.193723,-0.092 -0.41284,-0.11646 -0.61926,-0.1747 -0.08939,0.0993 -0.146013,0.35186 -0.268179,0.29781 -1.037299,-0.45892 -1.95884,-1.14426 -2.938259,-1.71639 1.692968,1.04867 0.54714,0.34489 4.272994,2.50678 0.226968,0.13169 1.292061,0.7706 1.52318,0.77791 0.157149,0.005 0.289541,-0.12267 0.434314,-0.18401 0.02566,-0.0876 0.101139,-0.17484 0.07702,-0.26292 -0.0288,-0.10515 -0.138708,-0.16872 -0.21622,-0.24538 -0.457454,-0.45243 -1.017535,-0.78323 -1.488163,-1.22122 -0.729257,-0.59712 -1.449115,-1.20746 -2.192311,-1.78341 -0.356949,-0.24488 -0.656521,-0.58947 -1.029599,-0.80804 -1.206796,-0.70702 -2.419887,-1.4034 -3.638809,-2.0893 -0.09376,-0.0528 -0.198216,-0.0837 -0.297323,-0.12562 -0.590926,-0.19722 -1.198769,-0.32436 -1.800966,-0.48138 -0.649568,-0.16977 -1.316096,-0.2409 -1.965762,-0.4102 -0.670721,-0.18702 -1.344975,-0.38212 -1.969116,-0.69662 -1.361792,-0.72717 -0.515234,-0.28052 2.583418,1.51318 0.124442,0.072 -0.248378,-0.14496 -0.372732,-0.21715 -0.402555,-0.23371 -0.311888,-0.1697 -0.67859,-0.41921 -0.06929,-0.0471 -0.13693,-0.0967 -0.205393,-0.145 -0.06804,0.007 -0.227235,0.034 -0.185248,0.0879 0.06165,0.0792 0.954069,0.34329 1.076052,0.40857 0.75261,0.25578 1.510094,0.49726 2.27489,0.71426 0.260012,0.0809 0.519952,0.16571 0.773663,0.2651 0.08534,0.0334 0.331878,0.15428 0.253103,0.10743 -1.08349,-0.64439 -4.321794,-2.50173 -2.848578,-1.65648 1.213276,0.69718 2.423663,1.39942 3.639828,2.09156 0.102849,0.0585 0.418634,0.2205 0.316807,0.16021 -1.008491,-0.59716 -2.023444,-1.18335 -3.037409,-1.77115 -0.892344,-0.51731 1.746472,1.05884 0.859779,0.54023 1.576621,1.12229 3.231275,2.18554 5.003626,2.95995 0.635336,0.22772 1.281181,0.4265 1.891921,0.71771 1.353061,0.63158 0.374743,0.18593 -2.728547,-1.62969 -0.111546,-0.0653 0.228534,0.12183 0.335285,0.19467 0.350877,0.23942 0.645287,0.55491 0.955371,0.84146 1.808136,1.45494 3.808508,2.69757 5.97607,3.53999 1.007435,0.35584 2.007459,0.63871 3.087216,0.56869 0,0 -3.200035,-2.32497 -3.200035,-2.32497 z" />
    <circle
       id="path5950"
       style="fill:#000000;stroke:#000000;stroke-width:0.264583"
       cx="27.80862"
       cy="195.32776"
       r="0.02963265" />
    <path
       style="fill:#000000;stroke-width:0.264583"
       id="path5952"
       d="m 64.50571,160.94427 c 0.615386,0.0315 1.153538,0.37506 1.678551,0.67305 0.459853,0.24602 0.934145,0.46558 1.388993,0.72074 -0.620564,-0.4229 1.306269,0.71351 0.688737,0.3568 -5.502783,-3.17857 -3.738451,-2.20284 -2.590122,-1.46061 0.45735,0.26715 0.826481,0.62568 1.128749,1.05574 0.368663,0.51165 0.712965,1.0344 1.166286,1.47592 1.178864,1.00137 2.820874,1.70138 4.046659,2.36205 0.07242,0.039 0.162679,0.0277 0.241279,0.052 0.131606,0.0407 0.255516,0.10349 0.385987,0.14772 0.296744,0.26058 0.685745,0.26896 1.046705,0.36869 0.234672,0.10682 0.475959,0.21305 0.701104,0.33928 0.08878,0.0498 0.345146,0.21565 0.256571,0.16552 -3.096831,-1.75271 -4.029903,-2.53142 -2.881635,-1.59724 0.257855,0.26257 0.137303,0.12824 0.362948,0.40184 0,0 3.610747,1.56379 3.610747,1.56379 v 0 c -0.205795,-0.32356 -0.09283,-0.16716 -0.339786,-0.46855 -1.128506,-1.267 -0.156577,-0.22185 -3.80312,-2.36984 -0.323268,-0.19042 -0.678114,-0.33602 -1.039096,-0.43514 -0.365829,-0.0904 -0.687456,-0.25289 -1.032042,-0.3976 -0.267824,-0.0964 -0.783571,-0.32155 -0.601696,-0.21374 5.497316,3.25856 3.876153,2.2445 2.681499,1.56605 -0.2422,-0.20308 -0.479912,-0.39461 -0.673614,-0.64752 -0.553204,-0.72229 0.151329,0.15159 -0.343257,-0.53104 -0.05411,-0.0747 -0.120853,-0.13933 -0.181282,-0.209 -0.302156,-0.46052 -0.592423,-0.90392 -1.070575,-1.20886 -1.591861,-0.95635 -3.166417,-1.95537 -4.831448,-2.78481 -0.463473,-0.23302 -0.920565,-0.47843 -1.382316,-0.71484 -0.569838,-0.28129 -1.134078,-0.54263 -1.781188,-0.58029 0,0 3.166362,2.36987 3.166362,2.36987 z" />
    <path
       style="fill:#000000;stroke-width:0.264583"
       id="path5954"
       d="m 141.48897,163.07114 c -0.55853,0.10359 -1.12652,0.13781 -1.69307,0.16206 -0.59227,-0.0247 -1.16881,0.0573 -1.7524,0.13954 -0.50019,0.10846 -0.97896,0.28597 -1.4726,0.41619 -0.45515,0.12803 -0.89806,0.10702 -1.35749,0.04 -0.54021,-0.15731 -1.07076,-0.35232 -1.634,-0.39473 -0.68197,0.18179 -1.17853,0.66989 -1.56803,1.23572 -0.31626,0.52184 -0.51355,1.09459 -0.69165,1.6742 -0.14808,0.49878 -0.26057,1.01205 -0.46497,1.49161 0,0 3.43301,1.93135 3.43301,1.93135 v 0 c 0.21947,-0.49133 0.33743,-1.01914 0.48,-1.53664 0.16075,-0.54118 0.33957,-1.07791 0.6253,-1.56829 0.32175,-0.44906 0.73498,-0.89756 1.33014,-0.87656 0.55364,0.11633 1.08763,0.31885 1.6503,0.39271 0.49228,0.0377 0.97714,-0.016 1.4506,-0.16113 0.473,-0.14461 0.94562,-0.29667 1.43517,-0.37636 0.57368,-0.0813 1.14691,-0.1068 1.7262,-0.11497 0.58457,-0.0343 1.16642,-0.0977 1.74626,-0.17959 0,0 -3.24277,-2.27515 -3.24277,-2.27515 z" />
    <circle
       id="path5956"
       style="fill:#ffffff;stroke:#000000;stroke-width:0.264583"
       cx="25.138994"
       cy="200.22208"
       r="0.02963265" />
    <path
       style="fill:#ffffff;stroke-width:0.264583"
       id="path6007"
       d="m 12.056292,152.86108 c 0.995906,-7.63603 2.955234,-15.10147 5.218288,-22.4493 0.548643,-1.78137 1.151708,-3.54552 1.727562,-5.31828 0.50363,-1.43648 0.973297,-2.88533 1.510889,-4.30945 0.644002,-1.70602 3.526775,-5.47284 -2.204552,-4.74149 -0.879149,0.11218 -0.832357,1.56508 -1.262548,2.33995 -1.49343,2.68999 -2.06374,3.61945 -3.640585,6.29862 -0.49102,0.84815 -1.028236,1.67118 -1.473058,2.54444 -1.030418,2.02288 -1.076749,3.26021 3.261289,3.42555 0.831788,0.0317 1.153091,-1.20081 1.734205,-1.79678 2.796997,-2.86851 1.96624,-2.02139 4.982227,-4.92282 -3.657809,-3.40974 5.642535,-0.98048 4.500421,-2.19823 -0.668819,-0.71311 -1.974243,-1.1088 -2.853027,-0.68033 -0.93684,0.45677 -0.82051,1.93772 -1.441973,2.77444 -2.618868,3.52596 -5.712171,6.01727 -8.950937,8.97221 -1.987129,1.63181 -7.8875206,6.55288 -10.1840263,8.16501 -1.0691108,0.75051 -2.17745825,1.46861 -3.3731013,1.99463 -0.59140187,0.26019 -2.4595631,-0.0102 -1.910073,0.3297 3.3924756,2.09834 3.3232301,-0.97982 4.0983067,-3.06084 0.8024213,-1.35337 1.4894503,-2.78218 2.407264,-4.06011 2.1626231,-3.01116 4.8274646,-5.65067 7.6296589,-8.05615 2.305209,-1.97885 5.175392,-4.04491 7.800318,-5.62112 1.023611,-0.61465 2.106405,-1.12489 3.159607,-1.68734 -2.947838,-1.72672 5.275624,-0.83566 4.021528,-0.34814 -0.835112,0.32465 -2.023864,-0.70774 -2.685967,-0.10406 -0.744192,0.67852 -0.214153,2.01071 -0.472736,2.98403 -0.82019,3.08723 -1.877256,4.93293 -3.260052,7.83668 -1.848655,3.18722 -2.194717,3.96401 -4.254226,6.86561 -0.510957,0.71988 -1.024812,1.44313 -1.620179,2.09493 -0.205236,0.22469 -1.040032,0.39426 -0.758065,0.50872 4.343637,1.76327 3.571753,1.3406 5.414615,-1.6157 2.159375,-3.10256 2.031306,-2.98075 4.317995,-6.01481 1.240977,-1.64657 2.382401,-3.16852 3.770659,-4.67912 0.377899,-0.41121 1.551879,-0.73381 1.200941,-1.16826 -0.761424,-0.9426 -2.218197,-0.97603 -3.327297,-1.46405 -2.080186,4.84612 -5.343889,9.08502 -8.820112,13.00926 -0.971183,1.09635 -1.955888,2.18476 -3.016094,3.19528 -0.80926,0.77133 -1.721366,1.427 -2.582049,2.1405 -0.575472,0.2049 -2.1147197,0.14312 -1.7264172,0.61469 0.6201177,0.75308 1.9715012,1.1862 2.8340172,0.7304 0.776405,-0.41028 0.333818,-1.73088 0.626176,-2.55893 0.436427,-1.23611 0.99468,-2.42698 1.552953,-3.61305 1.336295,-2.839 2.719408,-5.2662 4.224517,-8.01525 0.752494,-1.27865 2.768387,-4.82335 3.788431,-6.14983 0.414495,-0.53902 0.8396,-1.12023 1.433573,-1.4512 0.245065,-0.13655 1.097684,0.22287 0.818396,0.19637 -4.160284,-0.39478 -2.820418,-1.57522 -3.95916,2.38487 -1.241851,2.66313 -1.664209,3.78158 -3.218169,6.27369 -0.361871,0.58034 -0.742766,1.15904 -1.216925,1.6519 -0.121081,0.12586 -0.670713,0.0821 -0.505348,0.13832 4.111712,1.39674 3.325433,1.78747 3.643434,-1.39122 0.121664,-1.6352 0.5699,-3.21758 0.799875,-4.83483 0.06114,-0.42995 0.40233,-0.99312 0.09445,-1.29941 -1.020908,-1.01561 -2.287867,-1.89094 -3.678259,-2.26582 -0.473016,-0.12753 -0.746957,0.63537 -1.096762,0.97837 -0.467428,0.45833 -0.901932,0.94908 -1.352898,1.42362 -0.442926,0.4773 -1.791618,2.12446 -2.621496,2.42954 -0.209599,0.0771 -0.851987,-0.26831 -0.639708,-0.19898 1.057762,0.34545 2.068624,1.13442 3.176208,1.02737 0.459871,-0.0444 0.147747,-0.9137 0.266715,-1.36014 0.131364,-0.49295 0.321842,-0.96821 0.482763,-1.45232 2.091915,-1.03327 -2.029344,-1.13909 -2.627589,-0.4797 -0.945693,1.04237 -0.310197,2.8017 -0.592652,4.18049 -0.986027,4.81326 -1.6334728,5.84618 -3.0153182,10.5778 -0.2223143,0.76123 -0.3693758,1.54245 -0.554064,2.31368 1.5010119,0.28347 3.0990642,1.45228 4.5030362,0.8504 1.390701,-0.59618 1.645713,-2.53988 2.440858,-3.82722 0.228473,-0.36989 5.768156,-9.58919 5.998419,-9.95616 1.973813,-3.14567 1.430257,-2.44491 3.117049,-4.2756 -1.202884,-0.3915 -2.361234,-1.38461 -3.608654,-1.1745 -0.722854,0.12175 -0.640487,1.32046 -1.011457,1.95269 -0.9395,1.60117 -2.048717,3.12909 -3.145446,4.62333 -1.438374,1.95972 -1.041073,1.46551 -2.18836,2.77188 1.498735,0.33153 3.001887,1.34549 4.496205,0.99459 1.261563,-0.29624 1.846559,-1.81899 2.79139,-2.70589 1.115743,-1.04733 2.221793,-2.1073 3.389657,-3.09618 0.932582,-0.78966 1.883512,-1.56571 2.906107,-2.23471 0.409557,-0.26794 1.781059,-0.30777 1.359048,-0.55564 -1.167593,-0.68577 -2.630828,-0.64261 -3.946243,-0.96392 -2.094683,2.24927 -2.827913,3.15807 -5.325542,5.24605 -1.029989,0.86105 -1.999886,1.85656 -3.216922,2.42323 -0.752975,0.35059 -1.826477,-0.28128 -2.481159,0.22987 -0.422779,0.3301 1.334654,1.01981 1.523555,0.51779 0.326057,-0.86651 -0.471843,-1.79053 -0.707765,-2.6858 0.0778,-1.20724 0.037,-2.42802 0.233399,-3.62172 0.399231,-2.42644 1.326596,-4.87751 2.333628,-7.1072 0.511341,-1.13217 1.888579,-3.79446 2.7429,-4.87522 0.317894,-0.40215 0.764704,-0.6829 1.147056,-1.02435 0.265034,0.0843 1.070271,0.29329 0.795103,0.25289 -0.933848,-0.13712 -2.002483,-1.08101 -2.778803,-0.54416 -0.663456,0.45879 0.13193,1.61489 0.06768,2.41897 -0.226358,2.83268 -1.18272,5.57987 -1.981497,8.28532 -0.396187,2.40108 -0.828524,2.43046 3.641494,3.56868 0.584586,0.14886 1.074762,-0.54879 1.601322,-0.84312 2.405508,-1.34463 4.770769,-2.77064 7.14383,-4.1715 0.371957,-0.23965 1.45745,-0.43769 1.11587,-0.71895 -1.186286,-0.9768 -2.707989,-1.60361 -4.22607,-1.84202 -0.725684,-0.11397 -1.35424,0.56964 -2.02915,0.85965 -0.741056,0.31842 -1.469935,0.66575 -2.218696,0.9656 -0.434573,0.17404 -1.657315,0.12166 -1.328631,0.45499 0.985167,0.99909 2.479919,1.31337 3.719879,1.97006 1.907606,-0.66999 1.969117,-0.73049 4.119211,-1.29044 0.797089,-0.20759 1.583883,-0.50374 2.405139,-0.56682 0.381572,-0.0293 1.454348,0.46186 1.109038,0.29688 -3.744185,-1.78879 -2.578084,-2.10508 -4.720577,-0.0558 -2.405922,1.94079 -4.943487,3.71574 -7.549229,5.37689 -0.691082,0.44056 -1.327608,1.00438 -2.099728,1.27919 -0.287914,0.10247 -1.179928,-0.3152 -0.891338,-0.21464 1.073884,0.37417 2.166881,0.69104 3.250321,1.03657 0.325568,-1.70222 1.066934,-3.27454 1.666857,-4.88743 0.167854,-0.45128 0.378561,-0.89216 0.476608,-1.36355 0.06698,-0.32204 0.30213,-0.8313 0.01223,-0.98673 -1.360049,-0.72924 -2.946805,-0.91783 -4.420207,-1.37674 -0.642516,0.69266 -1.327499,1.34822 -1.927548,2.07797 -1.874375,2.27955 -3.183097,4.32123 -4.720632,6.86636 -2.0233709,3.34934 -3.7855382,6.82408 -5.5122939,10.33114 -0.4445535,1.07087 -1.2420473,2.68164 -1.3807456,3.93917 -0.1721527,1.56086 3.0368689,1.71787 4.5391562,1.26066 0.9020645,-0.27454 0.9963438,-1.60123 1.4821923,-2.40934 0.626987,-1.04287 1.237453,-2.09558 1.856179,-3.14337 3.554376,-6.52356 0.251419,-0.42166 3.593085,-6.70638 0.461225,-0.86743 0.879678,-1.76004 1.397778,-2.59475 0.198211,-0.31934 1.045754,-0.63095 0.740535,-0.85028 -3.868297,-2.77974 -3.378689,-1.21672 -3.963297,1.34988 -0.962148,3.25546 -2.275972,6.38625 -3.559977,9.52266 -0.192596,0.47045 -0.8991454,1.02156 -0.5744643,1.4127 2.8815043,3.4714 2.9108243,2.81162 4.1298793,1.17235 0,0 -3.22911,-1.95477 -3.22911,-1.95477 v 0 c -1.1027962,0.94491 -2.5151875,1.82331 2.290415,2.51681 0.520058,0.0751 0.08873,-1.05404 0.234965,-1.55873 0.286527,-0.98884 0.692235,-1.93933 1.057533,-2.90186 1.008116,-2.65631 1.565296,-3.95735 2.641112,-6.56804 1.145406,-2.78382 2.100161,-3.03379 -2.260702,-4.85686 -0.352679,-0.14744 -0.219649,0.73404 -0.370451,1.08529 -1.385215,3.22649 -3.062283,6.32873 -4.8312814,9.35736 -0.6739416,1.00985 -1.3164415,2.04141 -2.0218249,3.02957 -0.5406927,0.75744 -1.810879,1.27825 -1.7139883,2.20382 0.1251855,1.19586 1.5205546,1.86397 2.2406171,2.82691 0.1407803,0.18827 -0.4673566,-0.26522 -0.4992283,-0.49813 -0.1509657,-1.10323 0.724617,-3.22967 0.9970931,-4.05426 0.4375544,-1.01023 0.8491231,-2.03212 1.3126633,-3.0307 1.1736824,-2.52839 2.4540164,-5.03519 3.9337884,-7.40025 1.414473,-2.2607 3.125379,-4.69095 5.024015,-6.59923 0.657621,-0.66096 1.441451,-1.18302 2.162176,-1.77454 -0.67386,-0.78708 -1.203342,-1.72557 -2.021579,-2.36123 -0.244017,-0.18957 0.191125,0.60622 0.157949,0.91343 -0.0515,0.47693 -0.252875,0.92602 -0.405699,1.38072 -0.558755,1.66246 -1.310136,3.25107 -1.889729,4.90573 1.061465,0.97803 2.007385,2.09868 3.184395,2.93408 0.194197,0.13784 0.484535,-0.0641 0.690339,-0.18393 0.691386,-0.40251 1.313768,-0.91333 1.972985,-1.36661 2.581074,-1.77475 5.177591,-3.52692 7.77391,-5.27924 2.566506,-1.95392 2.844657,-1.24979 -1.263539,-4.05228 -0.249354,-0.1701 -0.608348,-0.039 -0.90543,0.0145 -0.810006,0.14567 -1.599983,0.38651 -2.399922,0.57997 -0.831616,0.20113 -1.660694,0.41303 -2.494744,0.60381 -0.662274,0.15149 -1.329186,0.28194 -1.993779,0.42291 0.838023,0.75365 1.4897,1.79091 2.51407,2.26095 0.381943,0.17526 0.727295,-0.42405 1.109785,-0.59812 0.735839,-0.33487 1.479803,-0.65526 2.241261,-0.92688 0.725397,-0.25876 2.148273,0.10519 2.213575,-0.66221 0.458992,-5.39372 -2.333977,-1.86787 -2.773082,-1.40293 -2.34996,1.45966 -4.717949,2.96194 -7.290287,4.01143 -0.530859,0.21659 -1.830938,-0.0469 -1.646925,0.49612 0.322305,0.9511 1.431519,1.62677 2.422142,1.79149 0.458998,0.0763 -0.02649,-0.93022 -0.03973,-1.39534 2.107176,-9.04493 -1.294327,5.42546 1.363637,-5.36609 0.04594,-0.18652 1.20568,-4.81017 0.854605,-5.39962 -2.203573,-3.69979 -2.257735,-3.4728 -4.422002,-3.16567 -0.330835,0.40356 -0.709456,0.77228 -0.992505,1.21068 -0.814001,1.26077 -1.987531,3.76642 -2.529817,5.05515 -1.454815,3.45731 -2.65208,7.02056 -2.829661,10.80129 0.134861,0.94339 -0.229888,2.1191 0.404585,2.83016 1.96514,2.20235 4.274274,3.61252 6.824131,2.18083 1.170453,-0.65719 2.135797,-1.62715 3.180742,-2.46974 2.005501,-1.61712 3.920378,-3.34485 5.960914,-4.9195 -0.771401,-0.97614 -1.262523,-2.26367 -2.314199,-2.92842 -0.359595,-0.22729 -0.60381,0.59997 -0.920868,0.8836 -0.894777,0.80043 -1.804507,1.58404 -2.713852,2.36788 -1.168972,1.00764 -2.314287,2.04438 -3.521011,3.00649 -1.047707,0.83532 -2.877042,1.09184 -3.237871,2.38229 -0.300526,1.07478 1.185742,1.89102 1.778613,2.83653 0.741034,-1.6784 0.260238,-0.75816 1.822434,-2.96558 0.329527,-0.46563 2.950602,-4.12029 3.277695,-4.57218 0.436489,-0.60301 1.567596,-1.10138 1.318122,-1.80274 -0.429406,-1.20722 -1.912824,-1.70534 -2.869237,-2.55801 -0.157156,0.45179 -0.271754,0.92072 -0.471468,1.35537 -1.420316,3.09119 -2.853669,5.48192 -4.733664,8.41908 -1.042638,1.62894 -2.089712,3.2597 -3.257256,4.80158 -0.900111,1.1887 -2.5979264,1.92327 -2.9348108,3.37575 -0.231753,0.99921 1.0220048,1.77877 1.5330078,2.66815 -0.04372,-0.86774 -0.301324,-1.7512 -0.131168,-2.60322 0.363537,-1.82034 1.146713,-3.53105 1.709506,-5.29996 0.544799,-1.71236 1.096954,-3.42259 1.613243,-5.14375 0.396088,-1.32045 1.490329,-2.65126 1.123609,-3.98016 -1.709964,-6.19649 -2.586835,-4.48574 -3.729676,-2.89434 -0.0093,0.0261 -1.01518,2.76496 -0.941402,2.87643 0.443336,0.66984 2.675971,3.63861 3.93313,2.80031 0.406537,-0.27109 2.434187,-2.41609 2.531557,-2.51673 0.486207,-0.43265 0.938093,-0.90727 1.458621,-1.29796 0.947989,-0.71152 4.079424,-1.32173 -1.624923,-2.35456 -0.445272,-0.0806 0.173114,0.8978 0.146956,1.34956 -0.04095,0.7072 -0.712914,4.22678 -0.823179,4.8257 -0.721765,3.22524 -1.152072,2.27066 2.710042,5.08855 0.138701,0.1012 0.176483,-0.29484 0.255063,-0.4475 0.313666,-0.60937 0.597675,-1.23397 0.921403,-1.83805 0.553521,-1.03288 1.155026,-2.03953 1.709772,-3.07175 0.565989,-1.05314 1.101383,-2.12244 1.652074,-3.18366 0.38755,-0.91677 1.46956,-1.8035 1.162649,-2.75032 -0.403188,-1.24384 -2.744851,-4.35768 -3.915617,-3.23913 -0.92684,0.88551 -2.348915,3.60475 -2.816443,4.442 -0.651922,1.16747 -1.286014,2.3448 -1.929022,3.51719 -1.44767,2.65562 -2.923672,5.29586 -4.35239,7.96172 -0.622485,1.1615 -1.263005,2.31477 -1.8293264,3.50467 -0.4010464,0.84264 -1.4560796,1.73749 -1.0699935,2.58708 2.0006009,4.4024 2.9966579,3.15925 4.9962849,1.93266 0.794059,-0.76617 1.620736,-1.49991 2.382177,-2.2985 1.008427,-1.05763 1.967802,-2.1614 2.923944,-3.26652 1.816687,-2.09975 4.472026,-5.32683 6.154994,-7.53921 0.778862,-1.02387 1.501773,-2.08912 2.255337,-3.13175 0.475916,-0.65847 0.955394,-1.31437 1.433091,-1.97156 -1.069803,-0.74297 -1.93708,-1.95023 -3.20941,-2.22891 -0.537946,-0.11782 -0.682697,0.8644 -1.014812,1.30368 -2.697804,3.56834 -5.226485,7.26466 -8.05245,10.73594 -2.144595,2.63938 -3.095358,2.3223 0.687202,5.27272 0.230099,0.17948 0.269093,-0.51835 0.419886,-0.76819 1.850877,-3.06661 3.869086,-6.03446 5.508481,-9.22648 1.455106,-2.84537 2.557884,-4.74445 3.60614,-7.73338 0.339844,-0.96902 1.173967,-2.01973 0.798288,-2.97542 -0.293622,-0.74695 -2.75525,-4.35188 -4.837263,-3.8877 -0.839813,0.18723 -1.567258,0.71068 -2.350888,1.06602 -0.999609,0.60704 -2.025465,1.17283 -2.998827,1.82112 -2.508967,1.67105 -5.329694,3.84792 -7.5761244,5.8119 -2.7013376,2.36169 -5.6221288,5.17679 -7.847719,8.0074 -0.98325779,1.25055 -1.77410695,2.64107 -2.66116039,3.9616 -1.87710211,3.47877 -3.44170791,3.88513 1.57627638,6.61674 0.50060991,0.27251 1.09300771,-0.36674 1.56837851,-0.68122 1.4204706,-0.9397 6.9652106,-5.67836 7.5407262,-6.15695 1.7881077,-1.48695 3.5857577,-2.96239 5.3786377,-4.44359 2.318023,-1.94868 7.536708,-6.18887 9.767468,-8.57616 0.782963,-0.83791 2.292564,-1.6731 2.01781,-2.78648 -0.360839,-1.46222 -2.058546,-2.31961 -3.430941,-2.93996 -1.503456,-0.67959 -3.354885,3.13489 -4.226914,2.57551 -0.704011,0.64842 -4.386564,4.06629 -5.233252,4.7489 -0.611616,0.49308 -2.067123,0.56931 -1.936152,1.34394 0.177514,1.0499 1.45114,1.80348 2.499666,1.98896 1.445274,0.25567 -2.142763,-6.31217 1.50981,-4.13619 1.18622,-1.96308 2.524962,-4.27617 3.878889,-6.14051 0.474847,-0.65386 1.75403,-1.0851 1.547273,-1.8663 -0.27857,-1.05253 -1.537916,-2.34731 -2.573562,-2.01136 -2.514041,0.81552 0.831686,7.42588 -2.279446,7.5943 -1.707378,5.88935 -3.429325,11.77352 -5.181529,17.64971 -0.8066,2.70501 -1.5915929,5.41655 -2.4187814,8.11534 -0.1400842,0.45704 -0.2971385,0.9087 -0.4457079,1.36305 0,0 3.4325483,1.91683 3.4325483,1.91683 z" />
    <circle
       id="path6009"
       style="fill:#3366cc;stroke:#000000;stroke-width:0.264583"
       cx="16.907642"
       cy="181.75716"
       r="0.02963265" />
  </g>
</svg>
