<?xml version="1.0" encoding="UTF-8" standalone="no"?>
<!-- Created with Inkscape (http://www.inkscape.org/) -->

<svg
   width="210mm"
   height="297mm"
   viewBox="0 0 210 297"
   version="1.1"
   id="svg5"
   inkscape:version="1.2 (dc2aedaf03, 2022-05-15)"
   sodipodi:docname="trukkosabrak.svg"
   xmlns:inkscape="http://www.inkscape.org/namespaces/inkscape"
   xmlns:sodipodi="http://sodipodi.sourceforge.net/DTD/sodipodi-0.dtd"
   xmlns="http://www.w3.org/2000/svg"
   xmlns:svg="http://www.w3.org/2000/svg">
  <sodipodi:namedview
     id="namedview7"
     pagecolor="#ffffff"
     bordercolor="#000000"
     borderopacity="0.25"
     inkscape:showpageshadow="2"
     inkscape:pageopacity="0.0"
     inkscape:pagecheckerboard="0"
     inkscape:deskcolor="#d1d1d1"
     inkscape:document-units="mm"
     showgrid="false"
     inkscape:zoom="0.74564394"
     inkscape:cx="397.64288"
     inkscape:cy="561.9304"
     inkscape:window-width="1920"
     inkscape:window-height="1017"
     inkscape:window-x="-8"
     inkscape:window-y="-8"
     inkscape:window-maximized="1"
     inkscape:current-layer="layer1" />
  <defs
     id="defs2" />
  <g
     inkscape:label="Réteg 1"
     inkscape:groupmode="layer"
     id="layer1">
    <ellipse
       style="fill:#ffffff;stroke:#000000;stroke-width:0"
       id="path2245"
       cx="75.580643"
       cy="82.5"
       rx="4.2580643"
       ry="3.7258065" />
    <path
       style="fill:#000000;stroke:#000000;stroke-width:0"
       id="path2249-2"
       sodipodi:type="arc"
       sodipodi:cx="68.906395"
       sodipodi:cy="115.49593"
       sodipodi:rx="18.341745"
       sodipodi:ry="19.512495"
       sodipodi:start="0"
       sodipodi:end="4.712389"
       sodipodi:arc-type="slice"
       d="m 87.24814,115.49593 a 18.341745,19.512495 0 0 1 -11.322663,18.0272 18.341745,19.512495 0 0 1 -19.988655,-4.22978 18.341745,19.512495 0 0 1 -3.97599,-21.26453 18.341745,19.512495 0 0 1 16.945563,-12.045382 v 19.512492 z" />
    <path
       style="fill:#000000;stroke:#000000;stroke-width:0"
       id="path2249-2-2"
       sodipodi:type="arc"
       sodipodi:cx="-130.21779"
       sodipodi:cy="-51.948307"
       sodipodi:rx="18.341745"
       sodipodi:ry="19.512495"
       sodipodi:start="0"
       sodipodi:end="4.712389"
       sodipodi:arc-type="slice"
       d="m -111.87604,-51.948307 a 18.341745,19.512495 0 0 1 -11.32267,18.027195 18.341745,19.512495 0 0 1 -19.98865,-4.229778 18.341745,19.512495 0 0 1 -3.97599,-21.264526 18.341745,19.512495 0 0 1 16.94556,-12.045386 v 19.512495 z"
       transform="rotate(-178.4925)" />
    <path
       style="fill:#000000;stroke:#000000;stroke-width:0"
       id="path2249-2-9"
       sodipodi:type="arc"
       sodipodi:cx="-115.74335"
       sodipodi:cy="128.78134"
       sodipodi:rx="18.341745"
       sodipodi:ry="19.512495"
       sodipodi:start="0"
       sodipodi:end="4.712389"
       sodipodi:arc-type="slice"
       d="m -97.401602,128.78134 a 18.341745,19.512495 0 0 1 -11.322668,18.0272 18.341745,19.512495 0 0 1 -19.98865,-4.22978 18.341745,19.512495 0 0 1 -3.97599,-21.26453 18.341745,19.512495 0 0 1 16.94556,-12.04538 v 19.51249 z"
       transform="rotate(-90.188352)" />
    <path
       style="fill:#000000;stroke:#000000;stroke-width:0"
       id="path2249-2-4"
       sodipodi:type="arc"
       sodipodi:cx="57.078552"
       sodipodi:cy="-67.347786"
       sodipodi:rx="18.341745"
       sodipodi:ry="19.512495"
       sodipodi:start="0"
       sodipodi:end="4.712389"
       sodipodi:arc-type="slice"
       d="M 75.420298,-67.347786 A 18.341745,19.512495 0 0 1 64.097634,-49.320591 18.341745,19.512495 0 0 1 44.10898,-53.550369 18.341745,19.512495 0 0 1 40.132989,-74.814895 18.341745,19.512495 0 0 1 57.078552,-86.860281 v 19.512495 z"
       transform="rotate(88.84544)" />
    <rect
       style="fill:#ffffff;stroke:#000000;stroke-width:2;stroke-dasharray:none"
       id="rect2669"
       width="60"
       height="60"
       x="100.93966"
       y="-21.94286"
       transform="matrix(0.71789071,0.69615582,0.69615582,-0.71789071,0,0)" />
    <rect
       style="fill:#ffffff;stroke:#000000;stroke-width:0;stroke-dasharray:none"
       id="rect2403"
       width="60"
       height="60"
       x="69.19355"
       y="55.354836" />
    <path
       sodipodi:type="star"
       style="fill:#ffffff;stroke:#000000;stroke-width:2;stroke-dasharray:none"
       id="path2875"
       inkscape:flatsided="false"
       sodipodi:sides="3"
       sodipodi:cx="81.6129"
       sodipodi:cy="197.64516"
       sodipodi:r1="48.907276"
       sodipodi:r2="23.51812"
       sodipodi:arg1="0.49934672"
       sodipodi:arg2="1.5465443"
       inkscape:rounded="0"
       inkscape:randomized="0"
       d="m 124.54838,221.06451 -42.365174,0.0918 -42.319802,1.96234 21.103043,-36.73525 19.460467,-37.63119 21.262136,36.6434 z"
       inkscape:transform-center-x="-0.37965949"
       inkscape:transform-center-y="-11.601668"
       transform="matrix(0.97585106,0.00814079,-0.00814079,0.97585106,22.689454,11.666468)" />
    <path
       sodipodi:type="star"
       style="fill:#ffffff;stroke:#000000;stroke-width:0;stroke-dasharray:none"
       id="path2981"
       inkscape:flatsided="false"
       sodipodi:sides="3"
       sodipodi:cx="66"
       sodipodi:cy="237.74193"
       sodipodi:r1="51.491974"
       sodipodi:r2="24.761028"
       sodipodi:arg1="0.55932978"
       sodipodi:arg2="1.6065273"
       inkscape:rounded="0"
       inkscape:randomized="0"
       d="m 109.64516,265.06451 -44.529707,-2.57736 -44.600081,-0.60869 24.496909,-37.27518 22.827187,-38.32046 20.032798,39.85254 z"
       inkscape:transform-center-x="0.31662818"
       inkscape:transform-center-y="12.597816"
       transform="rotate(-62.751875,52.257133,190.24651)" />
    <path
       style="fill:#000000;stroke:#000000;stroke-width:2;stroke-dasharray:none"
       id="path3031"
       sodipodi:type="arc"
       sodipodi:cx="-167.25215"
       sodipodi:cy="216.96452"
       sodipodi:rx="17.032257"
       sodipodi:ry="17.209677"
       sodipodi:start="0"
       sodipodi:end="5.2359878"
       sodipodi:arc-type="slice"
       d="m -150.21989,216.96452 a 17.032257,17.209677 0 0 1 -12.62399,16.62327 17.032257,17.209677 0 0 1 -19.15864,-8.01843 17.032257,17.209677 0 0 1 2.70674,-20.77392 17.032257,17.209677 0 0 1 20.55976,-2.73493 l -8.51613,14.90401 z"
       transform="rotate(-59.29095)" />
    <path
       style="fill:#000000;stroke:#000000;stroke-width:2;stroke-dasharray:none"
       id="path3031-0"
       sodipodi:type="arc"
       sodipodi:cx="-142.2088"
       sodipodi:cy="-176.19722"
       sodipodi:rx="17.032257"
       sodipodi:ry="17.209677"
       sodipodi:start="0"
       sodipodi:end="5.2359878"
       sodipodi:arc-type="slice"
       d="m -125.17654,-176.19722 a 17.032257,17.209677 0 0 1 -12.62399,16.62327 17.032257,17.209677 0 0 1 -19.15864,-8.01843 17.032257,17.209677 0 0 1 2.70674,-20.77392 17.032257,17.209677 0 0 1 20.55976,-2.73494 l -8.51613,14.90402 z"
       transform="rotate(178.10129)" />
    <path
       style="fill:#000000;stroke:#000000;stroke-width:2;stroke-dasharray:none"
       id="path3031-9"
       sodipodi:type="arc"
       sodipodi:cx="176.34486"
       sodipodi:cy="41.473728"
       sodipodi:rx="17.032257"
       sodipodi:ry="17.209677"
       sodipodi:start="0"
       sodipodi:end="5.2359878"
       sodipodi:arc-type="slice"
       d="m 193.37712,41.473728 a 17.032257,17.209677 0 0 1 -12.62398,16.623271 17.032257,17.209677 0 0 1 -19.15864,-8.018433 17.032257,17.209677 0 0 1 2.70674,-20.773917 17.032257,17.209677 0 0 1 20.55975,-2.734938 l -8.51613,14.904017 z"
       transform="rotate(59.678694)" />
  </g>
</svg>
