<?xml version="1.0" encoding="UTF-8" standalone="no"?>
<!-- Created with Inkscape (http://www.inkscape.org/) -->

<svg
   width="210mm"
   height="297mm"
   viewBox="0 0 210 297"
   version="1.1"
   id="svg5"
   inkscape:version="1.2 (dc2aedaf03, 2022-05-15)"
   sodipodi:docname="ujpolo.svg"
   xmlns:inkscape="http://www.inkscape.org/namespaces/inkscape"
   xmlns:sodipodi="http://sodipodi.sourceforge.net/DTD/sodipodi-0.dtd"
   xmlns="http://www.w3.org/2000/svg"
   xmlns:svg="http://www.w3.org/2000/svg">
  <sodipodi:namedview
     id="namedview7"
     pagecolor="#ffffff"
     bordercolor="#000000"
     borderopacity="0.25"
     inkscape:showpageshadow="2"
     inkscape:pageopacity="0.0"
     inkscape:pagecheckerboard="0"
     inkscape:deskcolor="#d1d1d1"
     inkscape:document-units="mm"
     showgrid="false"
     inkscape:zoom="0.90509668"
     inkscape:cx="241.41067"
     inkscape:cy="260.74563"
     inkscape:window-width="1280"
     inkscape:window-height="961"
     inkscape:window-x="-8"
     inkscape:window-y="-8"
     inkscape:window-maximized="1"
     inkscape:current-layer="layer1" />
  <defs
     id="defs2">
    <rect
       x="274.00388"
       y="592.20193"
       width="219.86601"
       height="59.662135"
       id="rect3258" />
    <rect
       x="86.178639"
       y="765.66406"
       width="312.67378"
       height="72.920387"
       id="rect5667" />
    <rect
       x="160.9375"
       y="790.625"
       width="177.34375"
       height="75.78125"
       id="rect5559" />
    <rect
       x="113.8"
       y="728.09902"
       width="234.22912"
       height="109.38058"
       id="rect4717" />
  </defs>
  <g
     inkscape:label="Réteg 1"
     inkscape:groupmode="layer"
     id="layer1">
    <g
       id="path4661-6"
       transform="translate(-62.049038,-84.746477)"
       style="fill:none">
      <path
         style="color:#000000;fill:none;-inkscape-stroke:none"
         d="m 120.34452,116.90255 a 20,20 0 0 1 -20,20 20,20 0 0 1 -19.999999,-20 20,20 0 0 1 19.999999,-20 20,20 0 0 1 20,20 z"
         id="path2476-0" />
      <path
         style="color:#000000;fill:none;-inkscape-stroke:none"
         d="m 100.34375,96.402344 c -11.315904,0 -20.5,9.184096 -20.5,20.499996 0,11.31591 9.184096,20.5 20.5,20.5 11.3159,0 20.5,-9.18409 20.5,-20.5 0,-11.3159 -9.1841,-20.499996 -20.5,-20.499996 z m 0,1 c 10.77546,0 19.5,8.724536 19.5,19.499996 0,10.77547 -8.72454,19.5 -19.5,19.5 -10.775464,0 -19.5,-8.72453 -19.5,-19.5 0,-10.77546 8.724536,-19.499996 19.5,-19.499996 z"
         id="path2473-1" />
    </g>
    <text
       xml:space="preserve"
       transform="scale(0.26458333)"
       id="text4715"
       style="white-space:pre;shape-inside:url(#rect4717);fill:#ff0000;stroke:#000000;stroke-width:3.77953;stroke-dasharray:none;stroke-opacity:1" />
    <text
       xml:space="preserve"
       style="font-style:normal;font-variant:normal;font-weight:normal;font-stretch:normal;font-size:3.175px;font-family:Arial;-inkscape-font-specification:Arial;white-space:pre;inline-size:12.16;fill:#ff0000;stroke:#000000;stroke-width:0;stroke-dasharray:none;stroke-opacity:1"
       x="36.394592"
       y="203.31276"
       id="text5501" />
    <g
       id="g5771"
       transform="translate(4.0925644,-26.163181)">
      <path
         id="rect61"
         style="fill:#008000;stroke:#000000;stroke-width:1;stroke-dasharray:none;stroke-opacity:1"
         d="m 66.065497,66.758112 v 0.762228 l -0.519348,-0.559139 -26.65522,24.759212 17.162776,18.476907 10.011792,-9.29969 v 65.86058 h 75.000073 v -65.84352 l 10.00094,9.28935 17.16278,-18.476909 -26.65522,-24.759212 -0.5085,0.547253 v -0.75706 H 123.98548 A 20,20 0 0 1 104.29986,83.297155 20,20 0 0 1 84.614236,66.758112 Z" />
      <g
         aria-label="TALPASI IRKA ISKOLA"
         id="text5665"
         style="font-size:7.05556px;font-family:Arial;-inkscape-font-specification:Arial;white-space:pre;fill:#ffffff;stroke:#000000;stroke-width:0">
        <path
           d="m 80.632099,125.9435 -4.335312,1.02359 0.382362,1.61945 -0.580054,0.13696 -0.919885,-3.89608 0.580053,-0.13696 0.383945,1.62616 4.335313,-1.02359 z"
           id="path5517" />
        <path
           d="m 80.132198,124.04061 -5.095521,-1.81806 -0.01725,-0.71982 4.999555,-2.18743 0.01824,0.76114 -1.515075,0.62558 0.05058,2.11124 1.54247,0.51787 z m -2.108258,-1.40718 -0.04101,-1.71172 -1.385683,0.56045 q -0.631384,0.25635 -1.038428,0.38327 0.48793,0.0848 0.97087,0.24898 z"
           id="path5519" />
        <path
           d="m 80.158824,118.80522 -4.961873,-0.94207 0.124668,-0.65662 4.376331,0.8309 0.463968,-2.4437 0.585542,0.11117 z"
           id="path5521" />
        <path
           d="m 80.990896,114.9373 -4.681235,-1.89571 0.715094,-1.76584 q 0.188795,-0.46621 0.33307,-0.69398 0.197135,-0.32159 0.454386,-0.48875 0.254057,-0.16845 0.601536,-0.19127 0.348772,-0.026 0.696831,0.11493 0.597129,0.24181 0.858364,0.78991 0.258042,0.5468 -0.144118,1.53989 l -0.486212,1.20064 1.903149,0.7707 z m -2.204708,-1.61389 0.490092,-1.21022 q 0.243106,-0.60033 0.121738,-0.94311 -0.121368,-0.34278 -0.526905,-0.507 -0.293774,-0.11897 -0.562109,-0.0529 -0.270235,0.0615 -0.435569,0.27707 -0.104874,0.13965 -0.275566,0.56116 l -0.484919,1.19745 z"
           id="path5523" />
        <path
           d="m 82.333746,111.54519 -3.072056,-4.45333 0.406708,-0.59416 5.335225,1.14708 -0.43006,0.62827 -1.594994,-0.37788 -1.192882,1.74267 0.94893,1.32172 z m -0.888257,-2.37401 0.967149,-1.4129 -1.451937,-0.35511 q -0.662148,-0.16101 -1.066613,-0.29592 0.346357,0.35398 0.642271,0.76946 z"
           id="path5525" />
        <path
           d="m 84.148993,106.22562 0.427977,-0.4662 q 0.288829,0.24938 0.573399,0.32058 0.284787,0.0663 0.641298,-0.0544 0.354185,-0.12322 0.671932,-0.41389 0.282159,-0.25811 0.421492,-0.53964 0.139332,-0.28154 0.11101,-0.52177 -0.0281,-0.2451 -0.186226,-0.41795 -0.160446,-0.1754 -0.380716,-0.21202 -0.222595,-0.0392 -0.537842,0.0858 -0.203459,0.0787 -0.828553,0.42643 -0.627418,0.34516 -0.933307,0.4242 -0.394799,0.10435 -0.715332,0.0194 -0.320316,-0.0899 -0.555172,-0.34659 -0.25811,-0.28216 -0.321195,-0.67269 -0.06541,-0.39306 0.125902,-0.80152 0.191314,-0.40846 0.567526,-0.75261 0.414342,-0.37903 0.852788,-0.53264 0.438663,-0.15848 0.846156,-0.055 0.407494,0.10349 0.720169,0.41978 l -0.440253,0.46809 q -0.361347,-0.31845 -0.747596,-0.29663 -0.383707,0.0195 -0.8133,0.41247 -0.447388,0.40926 -0.502142,0.76284 -0.05454,0.34871 0.157065,0.58003 0.183699,0.20081 0.447183,0.19791 0.260941,-5.7e-4 0.986414,-0.41208 0.725689,-0.41638 1.042395,-0.51932 0.462566,-0.14767 0.829229,-0.0582 0.364339,0.0869 0.638725,0.38689 0.272062,0.29741 0.343582,0.71757 0.06919,0.41762 -0.116226,0.85804 -0.185204,0.43556 -0.584294,0.80063 -0.505853,0.46274 -0.983887,0.62922 -0.475493,0.16416 -0.940961,0.0483 -0.465251,-0.12069 -0.81724,-0.48506 z"
           id="path5527" />
        <path
           d="m 89.108674,104.1853 -2.755916,-4.232331 0.560077,-0.364698 2.755915,4.232329 z"
           id="path5529" />
        <path
           d="m 92.550155,102.31929 -1.899494,-4.679698 0.619279,-0.251365 1.899493,4.679703 z"
           id="path5531" />
        <path
           d="m 94.267715,101.57998 -1.07773,-4.934183 2.187735,-0.477848 q 0.659687,-0.144089 1.032399,-0.08444 0.371977,0.05628 0.650802,0.34801 0.278826,0.29173 0.367779,0.698986 0.114684,0.525056 -0.146596,0.959441 -0.261279,0.434385 -0.950132,0.687109 0.286363,0.06793 0.447458,0.159687 0.34343,0.20004 0.68524,0.537961 l 1.15159,1.155477 -0.821242,0.17937 -0.877176,-0.883934 q -0.383128,-0.381791 -0.619705,-0.57696 -0.236576,-0.195169 -0.405253,-0.257063 -0.165312,-0.06263 -0.324857,-0.06657 -0.116216,7e-4 -0.368647,0.05584 l -0.757293,0.165409 0.478583,2.191098 z m 0.05087,-2.899164 1.403516,-0.306558 q 0.447645,-0.09777 0.680227,-0.243786 0.231846,-0.149377 0.319002,-0.379993 0.08642,-0.233981 0.03422,-0.472949 -0.07646,-0.350038 -0.381508,-0.519672 -0.301686,-0.170368 -0.850302,-0.05054 l -1.561707,0.34111 z"
           id="path5533" />
        <path
           d="m 99.245759,100.64353 0.126639,-5.048921 0.668142,0.01676 -0.0628,2.503798 2.57005,-2.44091 0.90577,0.02272 -2.16938,1.992618 2.13573,3.058635 -0.88166,-0.0221 -1.73369,-2.600551 -0.846774,0.785167 -0.04388,1.749554 z"
           id="path5535" />
        <path
           d="m 103.43881,100.77085 3.11054,-4.426533 0.69838,0.175252 0.77561,5.401741 -0.73847,-0.18531 -0.19909,-1.62701 -2.04833,-0.51402 -0.91029,1.34862 z m 1.91825,-1.656878 1.66072,0.416748 -0.17081,-1.48494 q -0.0788,-0.676873 -0.0926,-1.103021 -0.21179,0.447672 -0.49877,0.869374 z"
           id="path5537" />
        <path
           d="m 110.00073,102.9841 2.39167,-4.44833 0.58866,0.316496 -2.39167,4.448324 z"
           id="path5539" />
        <path
           d="m 112.45429,102.41771 0.53351,0.34041 q -0.19538,0.32779 -0.21601,0.6204 -0.0158,0.29198 0.16503,0.62208 0.18292,0.32737 0.5244,0.58974 0.30324,0.23299 0.60471,0.32126 0.30147,0.0883 0.53312,0.0186 0.23648,-0.0703 0.37921,-0.25605 0.14483,-0.1885 0.14261,-0.41178 -1.3e-4,-0.22601 -0.17799,-0.51474 -0.11291,-0.18667 -0.56398,-0.74179 -0.44898,-0.55786 -0.58001,-0.84535 -0.17139,-0.37064 -0.14343,-0.70107 0.0328,-0.33106 0.24479,-0.60697 0.23299,-0.30324 0.6066,-0.43326 0.37571,-0.13275 0.81121,-0.0154 0.4355,0.11738 0.83981,0.42804 0.44529,0.34213 0.67279,0.74719 0.23233,0.40443 0.20127,0.82371 -0.0311,0.41928 -0.28818,0.78218 l -0.5375,-0.35216 q 0.25078,-0.41121 0.16214,-0.78779 -0.0859,-0.37447 -0.54759,-0.7292 -0.48081,-0.36942 -0.83852,-0.36187 -0.35288,0.007 -0.54389,0.25551 -0.16582,0.21582 -0.11715,0.47478 0.0459,0.25687 0.5773,0.89975 0.5362,0.64225 0.69264,0.93624 0.22583,0.42985 0.20147,0.80648 -0.0223,0.37391 -0.26995,0.69626 -0.24559,0.31963 -0.64691,0.46311 -0.39923,0.14074 -0.86519,0.0347 -0.46112,-0.10666 -0.89002,-0.43621 -0.54363,-0.4177 -0.79069,-0.85951 -0.24432,-0.43971 -0.21119,-0.91822 0.038,-0.47915 0.33559,-0.88913 z"
           id="path5541" />
        <path
           d="m 115.28894,106.79206 3.90955,-3.19737 0.42311,0.51736 -1.93877,1.5856 3.52655,0.35584 0.57361,0.70137 -2.92541,-0.34456 -0.92525,3.61393 -0.55834,-0.6827 0.84029,-3.01039 -1.14748,-0.12968 -1.35474,1.10796 z"
           id="path5543" />
        <path
           d="m 120.36892,109.30305 q 1.13995,-0.53078 2.06834,-0.21821 0.93151,0.31112 1.38231,1.27929 0.2952,0.634 0.22929,1.28413 -0.0659,0.65013 -0.48573,1.16862 -0.41524,0.52017 -1.10233,0.84009 -0.69646,0.32429 -1.37701,0.29915 -0.68055,-0.0251 -1.2047,-0.40813 -0.52103,-0.38444 -0.79878,-0.98096 -0.30102,-0.64649 -0.22574,-1.30099 0.0753,-0.65449 0.49343,-1.16841 0.41816,-0.51392 1.02092,-0.79458 z m 0.28147,0.62899 q -0.82763,0.38537 -1.09898,1.05134 -0.26676,0.66765 0.0459,1.33913 0.31847,0.68396 1.00447,0.90038 0.68746,0.21954 1.57131,-0.192 0.55904,-0.2603 0.88572,-0.64422 0.33125,-0.38225 0.38909,-0.85381 0.0624,-0.4699 -0.14843,-0.92275 -0.29956,-0.64337 -0.95972,-0.90222 -0.65559,-0.25719 -1.68935,0.22415 z"
           id="path5545" />
        <path
           d="m 120.34022,115.56125 4.94183,-1.04211 0.1379,0.65396 -4.35865,0.91914 0.51324,2.43384 -0.58318,0.12298 z"
           id="path5547" />
        <path
           d="m 121.08694,118.8963 5.0433,1.95825 -0.003,0.72002 -5.05812,2.04837 0.003,-0.76136 1.53179,-0.58345 0.008,-2.11183 -1.52756,-0.56032 z m 2.06854,1.46493 -0.006,1.7122 1.40065,-0.52192 q 0.63823,-0.2388 1.04863,-0.35441 -0.4854,-0.0983 -0.96362,-0.27573 z"
           id="path5549" />
      </g>
      <g
         aria-label="Talpas"
         id="text3256"
         style="font-size:7.05556px;font-family:Arial;-inkscape-font-specification:Arial;white-space:pre;fill:#ffffff;stroke:#000000;stroke-width:0">
        <path
           d="m 93.201462,140.73606 1.74559,-4.09824 -1.530898,-0.65206 0.233555,-0.54834 3.68303,1.56874 -0.233556,0.54833 -1.537237,-0.65476 -1.74559,4.09824 z"
           id="path5570" />
        <path
           d="m 97.650204,141.60612 q -0.400191,0.21044 -0.739195,0.25806 -0.335642,0.0484 -0.69199,-0.0315 -0.588311,-0.13179 -0.840304,-0.48833 -0.25124,-0.35991 -0.151077,-0.80702 0.05874,-0.26222 0.224603,-0.45102 0.169976,-0.1914 0.390968,-0.27958 0.224354,-0.0874 0.481464,-0.10045 0.188717,-0.007 0.558218,0.0297 0.752447,0.0768 1.125822,0.0333 0.03123,-0.12363 0.03876,-0.15725 0.08284,-0.3698 -0.05472,-0.55948 -0.186023,-0.25704 -0.643225,-0.35946 -0.426945,-0.0956 -0.665903,0.01 -0.234843,0.10273 -0.417435,0.46077 l -0.573598,-0.21323 q 0.165783,-0.3618 0.402645,-0.55235 0.237615,-0.1939 0.615104,-0.23996 0.378243,-0.0494 0.838806,0.0538 0.457201,0.10242 0.718853,0.27401 0.261652,0.17159 0.359221,0.36644 0.09832,0.19149 0.09638,0.45231 -0.0044,0.16142 -0.09476,0.56484 l -0.180745,0.80682 q -0.189029,0.84381 -0.202507,1.07733 -0.0094,0.23091 0.059,0.46159 l -0.632013,-0.14159 q -0.05196,-0.20934 -0.02237,-0.4675 z m 0.252321,-1.36273 q -0.359578,0.0607 -1.039573,0.007 -0.385206,-0.0298 -0.55491,0.003 -0.169704,0.0326 -0.283119,0.14487 -0.112663,0.10892 -0.148059,0.26692 -0.05422,0.24205 0.09116,0.44408 0.148749,0.20279 0.501735,0.28187 0.349625,0.0783 0.655818,-0.012 0.306947,-0.0936 0.494189,-0.3306 0.143431,-0.18323 0.23305,-0.58328 z"
           id="path5572" />
        <path
           d="m 99.062866,142.2413 0.431012,-5.03208 0.617852,0.0529 -0.431008,5.03208 z"
           id="path5574" />
        <path
           d="m 100.71078,143.79316 -0.2471,-5.05481 0.56432,-0.0276 0.0232,0.47486 q 0.18595,-0.28848 0.43042,-0.4384 0.24429,-0.15336 0.60216,-0.17085 0.46797,-0.0229 0.83761,0.2005 0.36964,0.22337 0.57354,0.6549 0.20374,0.42809 0.2293,0.95112 0.0274,0.56088 -0.15356,1.02158 -0.17771,0.45708 -0.55132,0.71679 -0.37035,0.2561 -0.79359,0.27679 -0.30969,0.0151 -0.56383,-0.1035 -0.2507,-0.11882 -0.41874,-0.31066 l 0.087,1.77899 z m 0.40411,-3.23442 q 0.0345,0.70541 0.33657,1.02866 0.30209,0.32326 0.70812,0.30341 0.41292,-0.0202 0.68842,-0.38203 0.27876,-0.36545 0.24293,-1.09838 -0.0341,-0.69852 -0.34018,-1.03193 -0.30259,-0.33357 -0.70174,-0.31406 -0.39572,0.0193 -0.6838,0.40594 -0.2848,0.38299 -0.25032,1.08839 z"
           id="path5576" />
        <path
           d="m 106.77278,141.10623 q -0.26519,0.36621 -0.54782,0.55937 -0.27929,0.19234 -0.63404,0.27898 -0.58567,0.14305 -0.96975,-0.0646 -0.38489,-0.21098 -0.49361,-0.65609 -0.0638,-0.26104 10e-4,-0.50384 0.0674,-0.24697 0.22623,-0.42408 0.16223,-0.17794 0.38685,-0.30372 0.16593,-0.0902 0.5134,-0.22116 0.70833,-0.26521 1.02362,-0.46989 -0.0269,-0.12464 -0.0351,-0.15811 -0.0899,-0.36814 -0.29738,-0.47705 -0.28079,-0.14775 -0.73594,-0.0366 -0.42503,0.10382 -0.5924,0.30428 -0.16483,0.1963 -0.16952,0.59819 l -0.60864,0.0635 q -0.0121,-0.39779 0.11562,-0.67368 0.12685,-0.27922 0.44466,-0.48807 0.317,-0.21218 0.7755,-0.32417 0.45515,-0.11117 0.76578,-0.0736 0.31063,0.0376 0.48455,0.1689 0.1731,0.12795 0.28714,0.36253 0.0677,0.14659 0.16582,0.54819 l 0.19618,0.80322 q 0.20518,0.84002 0.29676,1.05526 0.0941,0.21107 0.25776,0.38743 l -0.62918,0.15368 q -0.13949,-0.16453 -0.22757,-0.40899 z m -0.37881,-1.33312 q -0.29528,0.21398 -0.92834,0.4679 -0.35841,0.14428 -0.49601,0.24882 -0.1376,0.10454 -0.18939,0.25549 -0.0526,0.14761 -0.0142,0.30491 0.0589,0.24096 0.27882,0.35746 0.22331,0.11569 0.57471,0.0299 0.34806,-0.085 0.58236,-0.30183 0.23348,-0.22016 0.29608,-0.51561 0.0472,-0.22786 -0.0501,-0.62612 z"
           id="path5578" />
        <path
           d="m 107.67727,140.18468 0.52054,-0.33821 q 0.19755,0.31549 0.49154,0.39922 0.29714,0.0823 0.68403,-0.0905 0.39003,-0.17426 0.5085,-0.41585 0.11706,-0.24473 0.0215,-0.45862 -0.0857,-0.19188 -0.30162,-0.22749 -0.15011,-0.0235 -0.66448,0.0667 -0.69307,0.12097 -0.98586,0.11594 -0.29105,-0.01 -0.5068,-0.15468 -0.21402,-0.14965 -0.32363,-0.39499 -0.0998,-0.22333 -0.0834,-0.45703 0.0181,-0.23824 0.13801,-0.44276 0.0885,-0.15653 0.28551,-0.32376 0.1987,-0.17179 0.45978,-0.28842 0.39318,-0.17566 0.73944,-0.19452 0.34941,-0.0203 0.57808,0.11151 0.22727,0.12864 0.42549,0.42873 l -0.51988,0.32282 q -0.15298,-0.24106 -0.40005,-0.30425 -0.24394,-0.0646 -0.57421,0.083 -0.39004,0.17426 -0.49913,0.3777 -0.10909,0.20345 -0.0318,0.37645 0.0492,0.11009 0.15773,0.16724 0.10995,0.0603 0.28449,0.054 0.099,-0.006 0.56477,-0.0787 0.67245,-0.10799 0.95473,-0.10958 0.28403,-0.006 0.50641,0.12844 0.22238,0.13459 0.35167,0.42398 0.12647,0.28309 0.0722,0.6092 -0.0525,0.32157 -0.30211,0.59909 -0.25097,0.27438 -0.64416,0.45004 -0.65111,0.29089 -1.11481,0.17356 -0.46057,-0.11874 -0.79242,-0.60817 z"
           id="path5580" />
      </g>
    </g>
    <g
       id="g5898"
       transform="rotate(42.652729,109.10884,98.978804)">
      <rect
         style="fill:#ffffff;fill-opacity:1;stroke:#000000;stroke-width:0;stroke-dasharray:none;stroke-opacity:1"
         id="rect5773"
         width="24.116898"
         height="5.9926834"
         x="89.159439"
         y="94.713638" />
      <path
         sodipodi:type="star"
         style="fill:#ffffff;fill-opacity:1;stroke:#000000;stroke-width:0;stroke-dasharray:none;stroke-opacity:1"
         id="path5833"
         inkscape:flatsided="false"
         sodipodi:sides="3"
         sodipodi:cx="116.49193"
         sodipodi:cy="97.783066"
         sodipodi:r1="4.2387276"
         sodipodi:r2="2.2221026"
         sodipodi:arg1="0"
         sodipodi:arg2="1.0471976"
         inkscape:rounded="0"
         inkscape:randomized="0"
         d="m 120.73066,97.783066 -3.12768,1.924397 -3.23042,1.746447 -0.10273,-3.670844 0.10273,-3.670846 3.23042,1.746449 z"
         inkscape:transform-center-x="-1.008311"
         inkscape:transform-center-y="-1.1932427e-06" />
      <circle
         style="fill:#241c1c;fill-opacity:1;stroke:#000000;stroke-width:0;stroke-dasharray:none;stroke-opacity:1"
         id="path5887"
         cx="91.890053"
         cy="97.963936"
         r="0.80000001" />
      <circle
         style="fill:#241c1c;fill-opacity:1;stroke:#000000;stroke-width:0;stroke-dasharray:none;stroke-opacity:1"
         id="path5889"
         cx="95.355934"
         cy="97.939758"
         r="0.80000001" />
      <circle
         style="fill:#241c1c;fill-opacity:1;stroke:#000000;stroke-width:0;stroke-dasharray:none;stroke-opacity:1"
         id="path5891"
         cx="98.857018"
         cy="97.952675"
         r="0.80000001" />
    </g>
  </g>
</svg>
