<?xml version="1.0" encoding="UTF-8" standalone="no"?>
<!-- Created with Inkscape (http://www.inkscape.org/) -->

<svg
   width="210mm"
   height="297mm"
   viewBox="0 0 210 297"
   version="1.1"
   id="svg2639"
   inkscape:version="1.2 (dc2aedaf03, 2022-05-15)"
   sodipodi:docname="zaszlo.svg"
   xmlns:inkscape="http://www.inkscape.org/namespaces/inkscape"
   xmlns:sodipodi="http://sodipodi.sourceforge.net/DTD/sodipodi-0.dtd"
   xmlns="http://www.w3.org/2000/svg"
   xmlns:svg="http://www.w3.org/2000/svg">
  <sodipodi:namedview
     id="namedview2641"
     pagecolor="#ffffff"
     bordercolor="#000000"
     borderopacity="0.25"
     inkscape:showpageshadow="2"
     inkscape:pageopacity="0.0"
     inkscape:pagecheckerboard="0"
     inkscape:deskcolor="#d1d1d1"
     inkscape:document-units="mm"
     showgrid="false"
     inkscape:zoom="0.74564394"
     inkscape:cx="478.11024"
     inkscape:cy="561.9304"
     inkscape:window-width="1920"
     inkscape:window-height="1017"
     inkscape:window-x="-8"
     inkscape:window-y="-8"
     inkscape:window-maximized="1"
     inkscape:current-layer="layer1" />
  <defs
     id="defs2636" />
  <g
     inkscape:label="Réteg 1"
     inkscape:groupmode="layer"
     id="layer1">
    <rect
       style="fill:#003399;fill-opacity:1;stroke:#000000;stroke-width:0.499999"
       id="rect3175"
       width="150"
       height="100"
       x="23.57258"
       y="58.379032" />
    <path
       sodipodi:type="star"
       style="fill:#ffcc00;fill-opacity:1;stroke:#ffcc00;stroke-width:0.499999;stroke-opacity:1"
       id="path4062-8"
       inkscape:flatsided="false"
       sodipodi:sides="5"
       sodipodi:cx="110.35483"
       sodipodi:cy="90.129036"
       sodipodi:r1="11.514502"
       sodipodi:r2="5.7572513"
       sodipodi:arg1="0.5880026"
       sodipodi:arg2="1.2163211"
       inkscape:rounded="0"
       inkscape:randomized="0"
       d="m 119.93547,96.516132 -7.58231,-0.98778 -5.11224,5.686138 -1.40363,-7.516447 -6.987607,-3.104915 6.714827,-3.65764 0.79365,-7.605083 5.55362,5.255903 7.47812,-1.595285 -3.2825,6.905967 z"
       inkscape:transform-center-x="-0.057189444"
       inkscape:transform-center-y="-0.52006186"
       transform="matrix(0.4843928,0.19641682,-0.19641682,0.4843928,60.625463,76.722019)" />
    <path
       sodipodi:type="star"
       style="fill:#ffcc00;fill-opacity:1;stroke:#ffcc00;stroke-width:0.499999;stroke-opacity:1"
       id="path4062-8-7"
       inkscape:flatsided="false"
       sodipodi:sides="5"
       sodipodi:cx="110.35483"
       sodipodi:cy="90.129036"
       sodipodi:r1="11.514502"
       sodipodi:r2="5.7572513"
       sodipodi:arg1="0.5880026"
       sodipodi:arg2="1.2163211"
       inkscape:rounded="0"
       inkscape:randomized="0"
       d="m 119.93547,96.516132 -7.58231,-0.98778 -5.11224,5.686138 -1.40363,-7.516447 -6.987607,-3.104915 6.714827,-3.65764 0.79365,-7.605083 5.55362,5.255903 7.47812,-1.595285 -3.2825,6.905967 z"
       inkscape:transform-center-x="0.32262979"
       inkscape:transform-center-y="-0.25917532"
       transform="matrix(0.51424409,0.09364278,-0.09364278,0.51424409,64.651719,80.77082)" />
    <path
       sodipodi:type="star"
       style="fill:#ffcc00;fill-opacity:1;stroke:#ffcc00;stroke-width:0.499999;stroke-opacity:1"
       id="path4062-8-9"
       inkscape:flatsided="false"
       sodipodi:sides="5"
       sodipodi:cx="110.35483"
       sodipodi:cy="90.129036"
       sodipodi:r1="11.514502"
       sodipodi:r2="5.7572513"
       sodipodi:arg1="0.5880026"
       sodipodi:arg2="1.2163211"
       inkscape:rounded="0"
       inkscape:randomized="0"
       d="m 119.93547,96.516132 -7.58231,-0.98778 -5.11224,5.686138 -1.40363,-7.516447 -6.987607,-3.104915 6.714827,-3.65764 0.79365,-7.605083 5.55362,5.255903 7.47812,-1.595285 -3.2825,6.905967 z"
       inkscape:transform-center-x="-0.16121924"
       inkscape:transform-center-y="0.41923793"
       transform="matrix(-0.02428372,-0.52213625,0.52213625,-0.02428372,81.000652,186.97167)" />
    <path
       sodipodi:type="star"
       style="fill:#ffcc00;fill-opacity:1;stroke:#ffcc00;stroke-width:0.499999;stroke-opacity:1"
       id="path4062-8-98"
       inkscape:flatsided="false"
       sodipodi:sides="5"
       sodipodi:cx="110.35483"
       sodipodi:cy="90.129036"
       sodipodi:r1="11.514502"
       sodipodi:r2="5.7572513"
       sodipodi:arg1="0.5880026"
       sodipodi:arg2="1.2163211"
       inkscape:rounded="0"
       inkscape:randomized="0"
       d="m 119.93547,96.516132 -7.58231,-0.98778 -5.11224,5.686138 -1.40363,-7.516447 -6.987607,-3.104915 6.714827,-3.65764 0.79365,-7.605083 5.55362,5.255903 7.47812,-1.595285 -3.2825,6.905967 z"
       inkscape:transform-center-x="-0.089137985"
       inkscape:transform-center-y="-0.48929023"
       transform="matrix(0.48094487,0.20471441,-0.20471441,0.48094487,96.788841,44.547012)" />
    <path
       sodipodi:type="star"
       style="fill:#ffcc00;fill-opacity:1;stroke:#ffcc00;stroke-width:0.499999;stroke-opacity:1"
       id="path4062-8-8"
       inkscape:flatsided="false"
       sodipodi:sides="5"
       sodipodi:cx="110.35483"
       sodipodi:cy="90.129036"
       sodipodi:r1="11.514502"
       sodipodi:r2="5.7572513"
       sodipodi:arg1="0.5880026"
       sodipodi:arg2="1.2163211"
       inkscape:rounded="0"
       inkscape:randomized="0"
       d="m 119.93547,96.516132 -7.58231,-0.98778 -5.11224,5.686138 -1.40363,-7.516447 -6.987607,-3.104915 6.714827,-3.65764 0.79365,-7.605083 5.55362,5.255903 7.47812,-1.595285 -3.2825,6.905967 z"
       inkscape:transform-center-x="-0.389714"
       inkscape:transform-center-y="-0.19132612"
       transform="matrix(0.44130456,0.28011826,-0.28011826,0.44130456,104.05619,21.346964)" />
    <path
       sodipodi:type="star"
       style="fill:#ffcc00;fill-opacity:1;stroke:#ffcc00;stroke-width:0.499999;stroke-opacity:1"
       id="path4062-8-5"
       inkscape:flatsided="false"
       sodipodi:sides="5"
       sodipodi:cx="110.35483"
       sodipodi:cy="90.129036"
       sodipodi:r1="11.514502"
       sodipodi:r2="5.7572513"
       sodipodi:arg1="0.5880026"
       sodipodi:arg2="1.2163211"
       inkscape:rounded="0"
       inkscape:randomized="0"
       d="m 119.93547,96.516132 -7.58231,-0.98778 -5.11224,5.686138 -1.40363,-7.516447 -6.987607,-3.104915 6.714827,-3.65764 0.79365,-7.605083 5.55362,5.255903 7.47812,-1.595285 -3.2825,6.905967 z"
       inkscape:transform-center-x="-0.44855137"
       inkscape:transform-center-y="0.13116658"
       transform="matrix(0.38627381,0.35214841,-0.35214841,0.38627381,103.84691,6.2934408)" />
    <path
       sodipodi:type="star"
       style="fill:#ffcc00;fill-opacity:1;stroke:#ffcc00;stroke-width:0.499999;stroke-opacity:1"
       id="path4062-8-94"
       inkscape:flatsided="false"
       sodipodi:sides="5"
       sodipodi:cx="110.35483"
       sodipodi:cy="90.129036"
       sodipodi:r1="11.514502"
       sodipodi:r2="5.7572513"
       sodipodi:arg1="0.5880026"
       sodipodi:arg2="1.2163211"
       inkscape:rounded="0"
       inkscape:randomized="0"
       d="m 119.93547,96.516132 -7.58231,-0.98778 -5.11224,5.686138 -1.40363,-7.516447 -6.987607,-3.104915 6.714827,-3.65764 0.79365,-7.605083 5.55362,5.255903 7.47812,-1.595285 -3.2825,6.905967 z"
       inkscape:transform-center-x="-0.049801097"
       inkscape:transform-center-y="-0.52715382"
       transform="matrix(-0.03504678,0.52152438,-0.52152438,-0.03504678,148.92995,20.25262)" />
    <path
       sodipodi:type="star"
       style="fill:#ffcc00;fill-opacity:1;stroke:#ffcc00;stroke-width:0.499999;stroke-opacity:1"
       id="path4062-8-0"
       inkscape:flatsided="false"
       sodipodi:sides="5"
       sodipodi:cx="110.35483"
       sodipodi:cy="90.129036"
       sodipodi:r1="11.514502"
       sodipodi:r2="5.7572513"
       sodipodi:arg1="0.5880026"
       sodipodi:arg2="1.2163211"
       inkscape:rounded="0"
       inkscape:randomized="0"
       d="m 119.93547,96.516132 -7.58231,-0.98778 -5.11224,5.686138 -1.40363,-7.516447 -6.987607,-3.104915 6.714827,-3.65764 0.79365,-7.605083 5.55362,5.255903 7.47812,-1.595285 -3.2825,6.905967 z"
       inkscape:transform-center-x="-0.352477"
       inkscape:transform-center-y="0.229087"
       transform="matrix(0.36711191,0.37208172,-0.37208172,0.36711191,73.693574,3.3368774)" />
    <path
       sodipodi:type="star"
       style="fill:#ffcc00;fill-opacity:1;stroke:#ffcc00;stroke-width:0.499999;stroke-opacity:1"
       id="path4062-8-80"
       inkscape:flatsided="false"
       sodipodi:sides="5"
       sodipodi:cx="110.35483"
       sodipodi:cy="90.129036"
       sodipodi:r1="11.514502"
       sodipodi:r2="5.7572513"
       sodipodi:arg1="0.5880026"
       sodipodi:arg2="1.2163211"
       inkscape:rounded="0"
       inkscape:randomized="0"
       d="m 119.93547,96.516132 -7.58231,-0.98778 -5.11224,5.686138 -1.40363,-7.516447 -6.987607,-3.104915 6.714827,-3.65764 0.79365,-7.605083 5.55362,5.255903 7.47812,-1.595285 -3.2825,6.905967 z"
       inkscape:transform-center-x="0.11667119"
       inkscape:transform-center-y="-0.4626355"
       transform="matrix(0.5006193,0.15032056,-0.15032056,0.5006193,24.070045,28.550593)" />
    <path
       sodipodi:type="star"
       style="fill:#ffcc00;fill-opacity:1;stroke:#ffcc00;stroke-width:0.499999;stroke-opacity:1"
       id="path4062-8-4"
       inkscape:flatsided="false"
       sodipodi:sides="5"
       sodipodi:cx="110.35483"
       sodipodi:cy="90.129036"
       sodipodi:r1="11.514502"
       sodipodi:r2="5.7572513"
       sodipodi:arg1="0.5880026"
       sodipodi:arg2="1.2163211"
       inkscape:rounded="0"
       inkscape:randomized="0"
       d="m 119.93547,96.516132 -7.58231,-0.98778 -5.11224,5.686138 -1.40363,-7.516447 -6.987607,-3.104915 6.714827,-3.65764 0.79365,-7.605083 5.55362,5.255903 7.47812,-1.595285 -3.2825,6.905967 z"
       inkscape:transform-center-x="0.11667119"
       inkscape:transform-center-y="-0.4626355"
       transform="matrix(0.5006193,0.15032056,-0.15032056,0.5006193,18.037787,44.873174)" />
    <path
       sodipodi:type="star"
       style="fill:#ffcc00;fill-opacity:1;stroke:#ffcc00;stroke-width:0.499999;stroke-opacity:1"
       id="path4062-8-87"
       inkscape:flatsided="false"
       sodipodi:sides="5"
       sodipodi:cx="110.35483"
       sodipodi:cy="90.129036"
       sodipodi:r1="11.514502"
       sodipodi:r2="5.7572513"
       sodipodi:arg1="0.5880026"
       sodipodi:arg2="1.2163211"
       inkscape:rounded="0"
       inkscape:randomized="0"
       d="m 119.93547,96.516132 -7.58231,-0.98778 -5.11224,5.686138 -1.40363,-7.516447 -6.987607,-3.104915 6.714827,-3.65764 0.79365,-7.605083 5.55362,5.255903 7.47812,-1.595285 -3.2825,6.905967 z"
       inkscape:transform-center-x="0.032607695"
       inkscape:transform-center-y="-0.54362861"
       transform="matrix(0.49330905,0.17280664,-0.17280664,0.49330905,25.484061,60.792527)" />
    <path
       sodipodi:type="star"
       style="fill:#ffcc00;fill-opacity:1;stroke:#ffcc00;stroke-width:0.499999;stroke-opacity:1"
       id="path4062-8-6"
       inkscape:flatsided="false"
       sodipodi:sides="5"
       sodipodi:cx="110.35483"
       sodipodi:cy="90.129036"
       sodipodi:r1="11.514502"
       sodipodi:r2="5.7572513"
       sodipodi:arg1="0.5880026"
       sodipodi:arg2="1.2163211"
       inkscape:rounded="0"
       inkscape:randomized="0"
       d="m 119.93547,96.516132 -7.58231,-0.98778 -5.11224,5.686138 -1.40363,-7.516447 -6.987607,-3.104915 6.714827,-3.65764 0.79365,-7.605083 5.55362,5.255903 7.47812,-1.595285 -3.2825,6.905967 z"
       inkscape:transform-center-x="-0.057189444"
       inkscape:transform-center-y="-0.52006186"
       transform="matrix(0.4843928,0.19641682,-0.19641682,0.4843928,40.660489,71.409997)" />
  </g>
</svg>
